<?xml version="1.0" encoding="UTF-8" standalone="no"?>
<!DOCTYPE svg PUBLIC "-//W3C//DTD SVG 1.1//EN"
 "http://www.w3.org/Graphics/SVG/1.1/DTD/svg11.dtd">
<!-- Generated by graphviz version 10.0.1 (20240210.2158)
 -->
<!-- Pages: 1 -->
<svg width="486pt" height="231pt"
 viewBox="0.00 0.00 485.62 231.00" xmlns="http://www.w3.org/2000/svg" xmlns:xlink="http://www.w3.org/1999/xlink">
<g id="graph0" class="graph" transform="scale(1 1) rotate(0) translate(4 227)">
<polygon fill="white" stroke="none" points="-4,4 -4,-227 481.62,-227 481.62,4 -4,4"/>
<g id="clust1" class="cluster">
<title>cluster_metadata</title>
<polygon fill="none" stroke="black" points="8,-127 8,-215 184,-215 184,-127 8,-127"/>
</g>
<!-- Brazilian Water Resources -->
<g id="node1" class="node">
<title>Brazilian Water Resources</title>
<polygon fill="none" stroke="black" points="177.88,-117 14.12,-117 14.12,-81 177.88,-81 177.88,-117"/>
<text text-anchor="middle" x="96" y="-93.58" font-family="Times New Roman,serif" font-size="14.00">Brazilian Water Resources</text>
</g>
<!-- Lakes -->
<g id="node2" class="node">
<title>Lakes</title>
<polygon fill="none" stroke="black" points="278.88,-144 224.88,-144 224.88,-108 278.88,-108 278.88,-144"/>
<text text-anchor="middle" x="251.88" y="-120.58" font-family="Times New Roman,serif" font-size="14.00">Lakes</text>
</g>
<!-- Brazilian Water Resources&#45;&gt;Lakes -->
<g id="edge1" class="edge">
<title>Brazilian Water Resources&#45;&gt;Lakes</title>
<path fill="none" stroke="black" d="M177.99,-113.21C190.33,-115.38 202.53,-117.52 213.31,-119.41"/>
<polygon fill="black" stroke="black" points="212.45,-122.81 222.9,-121.09 213.66,-115.92 212.45,-122.81"/>
</g>
<!-- Reservoirs -->
<g id="node3" class="node">
<title>Reservoirs</title>
<polygon fill="none" stroke="black" points="289.88,-90 213.88,-90 213.88,-54 289.88,-54 289.88,-90"/>
<text text-anchor="middle" x="251.88" y="-66.58" font-family="Times New Roman,serif" font-size="14.00">Reservoirs</text>
</g>
<!-- Brazilian Water Resources&#45;&gt;Reservoirs -->
<g id="edge2" class="edge">
<title>Brazilian Water Resources&#45;&gt;Reservoirs</title>
<path fill="none" stroke="black" d="M177.99,-84.79C186.36,-83.32 194.66,-81.86 202.5,-80.49"/>
<polygon fill="black" stroke="black" points="202.88,-83.97 212.13,-78.8 201.67,-77.08 202.88,-83.97"/>
</g>
<!-- Man&#45;made lakes -->
<g id="node4" class="node">
<title>Man&#45;made lakes</title>
<polygon fill="none" stroke="black" points="455.12,-144 348.38,-144 348.38,-108 455.12,-108 455.12,-144"/>
<text text-anchor="middle" x="401.75" y="-120.58" font-family="Times New Roman,serif" font-size="14.00">Man&#45;made lakes</text>
</g>
<!-- Lakes&#45;&gt;Man&#45;made lakes -->
<g id="edge3" class="edge">
<title>Lakes&#45;&gt;Man&#45;made lakes</title>
<path fill="none" stroke="black" d="M279.31,-126C295.29,-126 316.4,-126 336.53,-126"/>
<polygon fill="black" stroke="black" points="336.38,-129.5 346.38,-126 336.38,-122.5 336.38,-129.5"/>
</g>
<!-- Natural lakes -->
<g id="node5" class="node">
<title>Natural lakes</title>
<polygon fill="none" stroke="black" points="445.38,-198 358.12,-198 358.12,-162 445.38,-162 445.38,-198"/>
<text text-anchor="middle" x="401.75" y="-174.57" font-family="Times New Roman,serif" font-size="14.00">Natural lakes</text>
</g>
<!-- Lakes&#45;&gt;Natural lakes -->
<g id="edge4" class="edge">
<title>Lakes&#45;&gt;Natural lakes</title>
<path fill="none" stroke="black" d="M279.21,-135.8C293.08,-140.95 310.39,-147.34 325.88,-153 332.77,-155.52 340.03,-158.15 347.2,-160.75"/>
<polygon fill="black" stroke="black" points="345.95,-164.02 356.54,-164.13 348.33,-157.44 345.95,-164.02"/>
</g>
<!-- Reservoirs&#45;&gt;Man&#45;made lakes -->
<g id="edge5" class="edge">
<title>Reservoirs&#45;&gt;Man&#45;made lakes</title>
<path fill="none" stroke="black" d="M290.37,-85.93C301.76,-90.15 314.32,-94.78 325.88,-99 330.18,-100.57 334.63,-102.19 339.11,-103.82"/>
<polygon fill="black" stroke="black" points="337.56,-106.98 348.15,-107.09 339.95,-100.4 337.56,-106.98"/>
</g>
<!-- Flood control reservoirs -->
<g id="node6" class="node">
<title>Flood control reservoirs</title>
<polygon fill="none" stroke="black" points="477.62,-90 325.88,-90 325.88,-54 477.62,-54 477.62,-90"/>
<text text-anchor="middle" x="401.75" y="-66.58" font-family="Times New Roman,serif" font-size="14.00">Flood control reservoirs</text>
</g>
<!-- Reservoirs&#45;&gt;Flood control reservoirs -->
<g id="edge6" class="edge">
<title>Reservoirs&#45;&gt;Flood control reservoirs</title>
<path fill="none" stroke="black" d="M290.19,-72C297.66,-72 305.8,-72 314.16,-72"/>
<polygon fill="black" stroke="black" points="314.14,-75.5 324.14,-72 314.14,-68.5 314.14,-75.5"/>
</g>
<!-- Recreational reservoirs -->
<g id="node7" class="node">
<title>Recreational reservoirs</title>
<polygon fill="none" stroke="black" points="473.5,-36 330,-36 330,0 473.5,0 473.5,-36"/>
<text text-anchor="middle" x="401.75" y="-12.57" font-family="Times New Roman,serif" font-size="14.00">Recreational reservoirs</text>
</g>
<!-- Reservoirs&#45;&gt;Recreational reservoirs -->
<g id="edge7" class="edge">
<title>Reservoirs&#45;&gt;Recreational reservoirs</title>
<path fill="none" stroke="black" d="M290.37,-58.07C301.76,-53.85 314.32,-49.22 325.88,-45 330.18,-43.43 334.63,-41.81 339.11,-40.18"/>
<polygon fill="black" stroke="black" points="339.95,-43.6 348.15,-36.91 337.56,-37.02 339.95,-43.6"/>
</g>
<!-- metadata_node -->
<g id="node8" class="node">
<title>metadata_node</title>
<text text-anchor="start" x="24" y="-189.2" font-family="Times New Roman,serif" font-size="14.00">Concepts: 7</text>
<text text-anchor="start" x="24" y="-173.45" font-family="Times New Roman,serif" font-size="14.00"> Subsumptions: 7</text>
<text text-anchor="start" x="24" y="-157.7" font-family="Times New Roman,serif" font-size="14.00"> Exploration Depth: 2</text>
<text text-anchor="start" x="24" y="-141.95" font-family="Times New Roman,serif" font-size="14.00"> Frequency Threshold: 10</text>
</g>
</g>
</svg>
