<?xml version="1.0" encoding="UTF-8" standalone="no"?>
<!DOCTYPE svg PUBLIC "-//W3C//DTD SVG 1.1//EN"
 "http://www.w3.org/Graphics/SVG/1.1/DTD/svg11.dtd">
<!-- Generated by graphviz version 10.0.1 (20240210.2158)
 -->
<!-- Pages: 1 -->
<svg width="930pt" height="583pt"
 viewBox="0.00 0.00 929.89 583.00" xmlns="http://www.w3.org/2000/svg" xmlns:xlink="http://www.w3.org/1999/xlink">
<g id="graph0" class="graph" transform="scale(1 1) rotate(0) translate(4 579)">
<polygon fill="white" stroke="none" points="-4,4 -4,-579 925.89,-579 925.89,4 -4,4"/>
<g id="clust1" class="cluster">
<title>cluster_metadata</title>
<polygon fill="none" stroke="black" points="8,-217 8,-305 177.25,-305 177.25,-217 8,-217"/>
</g>
<!-- Brazilian Water Resources -->
<g id="node1" class="node">
<title>Brazilian Water Resources</title>
<polygon fill="none" stroke="black" points="174.5,-207 10.75,-207 10.75,-171 174.5,-171 174.5,-207"/>
<text text-anchor="middle" x="92.62" y="-183.57" font-family="Times New Roman,serif" font-size="14.00">Brazilian Water Resources</text>
</g>
<!-- Lakes -->
<g id="node2" class="node">
<title>Lakes</title>
<polygon fill="none" stroke="black" points="275.5,-284 221.5,-284 221.5,-248 275.5,-248 275.5,-284"/>
<text text-anchor="middle" x="248.5" y="-260.57" font-family="Times New Roman,serif" font-size="14.00">Lakes</text>
</g>
<!-- Brazilian Water Resources&#45;&gt;Lakes -->
<g id="edge1" class="edge">
<title>Brazilian Water Resources&#45;&gt;Lakes</title>
<path fill="none" stroke="black" d="M164.59,-207.36C168.94,-209.1 173.2,-210.98 177.25,-213 191.85,-220.29 206.49,-230.71 218.6,-240.4"/>
<polygon fill="black" stroke="black" points="216.21,-242.97 226.16,-246.63 220.67,-237.57 216.21,-242.97"/>
</g>
<!-- Reservoirs -->
<g id="node3" class="node">
<title>Reservoirs</title>
<polygon fill="none" stroke="black" points="286.5,-207 210.5,-207 210.5,-171 286.5,-171 286.5,-207"/>
<text text-anchor="middle" x="248.5" y="-183.57" font-family="Times New Roman,serif" font-size="14.00">Reservoirs</text>
</g>
<!-- Brazilian Water Resources&#45;&gt;Reservoirs -->
<g id="edge2" class="edge">
<title>Brazilian Water Resources&#45;&gt;Reservoirs</title>
<path fill="none" stroke="black" d="M174.62,-189C182.89,-189 191.1,-189 198.86,-189"/>
<polygon fill="black" stroke="black" points="198.73,-192.5 208.73,-189 198.73,-185.5 198.73,-192.5"/>
</g>
<!-- Estuaries -->
<g id="node4" class="node">
<title>Estuaries</title>
<polygon fill="none" stroke="black" points="281.62,-153 215.38,-153 215.38,-117 281.62,-117 281.62,-153"/>
<text text-anchor="middle" x="248.5" y="-129.57" font-family="Times New Roman,serif" font-size="14.00">Estuaries</text>
</g>
<!-- Brazilian Water Resources&#45;&gt;Estuaries -->
<g id="edge3" class="edge">
<title>Brazilian Water Resources&#45;&gt;Estuaries</title>
<path fill="none" stroke="black" d="M146.15,-170.57C165.04,-163.94 186.12,-156.54 204.14,-150.22"/>
<polygon fill="black" stroke="black" points="205.22,-153.55 213.49,-146.93 202.9,-146.94 205.22,-153.55"/>
</g>
<!-- Natural lakes -->
<g id="node5" class="node">
<title>Natural lakes</title>
<polygon fill="none" stroke="black" points="442,-368 354.75,-368 354.75,-332 442,-332 442,-368"/>
<text text-anchor="middle" x="398.38" y="-344.57" font-family="Times New Roman,serif" font-size="14.00">Natural lakes</text>
</g>
<!-- Lakes&#45;&gt;Natural lakes -->
<g id="edge4" class="edge">
<title>Lakes&#45;&gt;Natural lakes</title>
<path fill="none" stroke="black" d="M275.94,-281.02C297.94,-293.52 329.67,-311.54 355.18,-326.03"/>
<polygon fill="black" stroke="black" points="353.23,-328.95 363.66,-330.85 356.69,-322.86 353.23,-328.95"/>
</g>
<!-- Man&#45;made lakes -->
<g id="node6" class="node">
<title>Man&#45;made lakes</title>
<polygon fill="none" stroke="black" points="451.75,-284 345,-284 345,-248 451.75,-248 451.75,-284"/>
<text text-anchor="middle" x="398.38" y="-260.57" font-family="Times New Roman,serif" font-size="14.00">Man&#45;made lakes</text>
</g>
<!-- Lakes&#45;&gt;Man&#45;made lakes -->
<g id="edge5" class="edge">
<title>Lakes&#45;&gt;Man&#45;made lakes</title>
<path fill="none" stroke="black" d="M275.94,-266C291.91,-266 313.02,-266 333.15,-266"/>
<polygon fill="black" stroke="black" points="333.01,-269.5 343.01,-266 333.01,-262.5 333.01,-269.5"/>
</g>
<!-- Reservoirs&#45;&gt;Man&#45;made lakes -->
<g id="edge6" class="edge">
<title>Reservoirs&#45;&gt;Man&#45;made lakes</title>
<path fill="none" stroke="black" d="M284.92,-207.44C305.06,-217.93 330.48,-231.17 352.06,-242.4"/>
<polygon fill="black" stroke="black" points="350.16,-245.36 360.65,-246.87 353.39,-239.15 350.16,-245.36"/>
</g>
<!-- Flood control reservoirs -->
<g id="node7" class="node">
<title>Flood control reservoirs</title>
<polygon fill="none" stroke="black" points="474.25,-124 322.5,-124 322.5,-88 474.25,-88 474.25,-124"/>
<text text-anchor="middle" x="398.38" y="-100.58" font-family="Times New Roman,serif" font-size="14.00">Flood control reservoirs</text>
</g>
<!-- Reservoirs&#45;&gt;Flood control reservoirs -->
<g id="edge7" class="edge">
<title>Reservoirs&#45;&gt;Flood control reservoirs</title>
<path fill="none" stroke="black" d="M282.32,-170.58C303.66,-158.6 331.72,-142.85 354.78,-129.91"/>
<polygon fill="black" stroke="black" points="356.32,-133.06 363.33,-125.11 352.9,-126.95 356.32,-133.06"/>
</g>
<!-- Recreational reservoirs -->
<g id="node8" class="node">
<title>Recreational reservoirs</title>
<polygon fill="none" stroke="black" points="470.12,-201 326.62,-201 326.62,-165 470.12,-165 470.12,-201"/>
<text text-anchor="middle" x="398.38" y="-177.57" font-family="Times New Roman,serif" font-size="14.00">Recreational reservoirs</text>
</g>
<!-- Reservoirs&#45;&gt;Recreational reservoirs -->
<g id="edge8" class="edge">
<title>Reservoirs&#45;&gt;Recreational reservoirs</title>
<path fill="none" stroke="black" d="M286.82,-187.49C295.58,-187.13 305.26,-186.74 315.15,-186.34"/>
<polygon fill="black" stroke="black" points="314.99,-189.85 324.84,-185.94 314.71,-182.85 314.99,-189.85"/>
</g>
<!-- Freshwater lakes -->
<g id="node9" class="node">
<title>Freshwater lakes</title>
<polygon fill="none" stroke="black" points="675.19,-413 566.19,-413 566.19,-377 675.19,-377 675.19,-413"/>
<text text-anchor="middle" x="620.69" y="-389.57" font-family="Times New Roman,serif" font-size="14.00">Freshwater lakes</text>
</g>
<!-- Natural lakes&#45;&gt;Freshwater lakes -->
<g id="edge9" class="edge">
<title>Natural lakes&#45;&gt;Freshwater lakes</title>
<path fill="none" stroke="black" d="M442.38,-358.78C474.38,-365.32 518.61,-374.35 554.89,-381.76"/>
<polygon fill="black" stroke="black" points="553.89,-385.13 564.39,-383.7 555.3,-378.27 553.89,-385.13"/>
</g>
<!-- Reservoir lakes -->
<g id="node15" class="node">
<title>Reservoir lakes</title>
<polygon fill="none" stroke="black" points="895.26,-305 793.76,-305 793.76,-269 895.26,-269 895.26,-305"/>
<text text-anchor="middle" x="844.51" y="-281.57" font-family="Times New Roman,serif" font-size="14.00">Reservoir lakes</text>
</g>
<!-- Man&#45;made lakes&#45;&gt;Reservoir lakes -->
<g id="edge16" class="edge">
<title>Man&#45;made lakes&#45;&gt;Reservoir lakes</title>
<path fill="none" stroke="black" d="M450.02,-284.43C468.69,-290.32 490.18,-296.08 510.25,-299 604.49,-312.73 715.21,-303.86 782.32,-295.77"/>
<polygon fill="black" stroke="black" points="782.53,-299.27 792.02,-294.56 781.67,-292.32 782.53,-299.27"/>
</g>
<!-- Recreational lakes -->
<g id="node16" class="node">
<title>Recreational lakes</title>
<polygon fill="none" stroke="black" points="678.94,-236 562.44,-236 562.44,-200 678.94,-200 678.94,-236"/>
<text text-anchor="middle" x="620.69" y="-212.57" font-family="Times New Roman,serif" font-size="14.00">Recreational lakes</text>
</g>
<!-- Man&#45;made lakes&#45;&gt;Recreational lakes -->
<g id="edge17" class="edge">
<title>Man&#45;made lakes&#45;&gt;Recreational lakes</title>
<path fill="none" stroke="black" d="M452.15,-254.5C481.87,-248.03 519.32,-239.87 551.28,-232.91"/>
<polygon fill="black" stroke="black" points="551.83,-236.37 560.85,-230.82 550.34,-229.53 551.83,-236.37"/>
</g>
<!-- Hydroelectric reservoirs -->
<g id="node17" class="node">
<title>Hydroelectric reservoirs</title>
<polygon fill="none" stroke="black" points="695.82,-290 545.57,-290 545.57,-254 695.82,-254 695.82,-290"/>
<text text-anchor="middle" x="620.69" y="-266.57" font-family="Times New Roman,serif" font-size="14.00">Hydroelectric reservoirs</text>
</g>
<!-- Man&#45;made lakes&#45;&gt;Hydroelectric reservoirs -->
<g id="edge18" class="edge">
<title>Man&#45;made lakes&#45;&gt;Hydroelectric reservoirs</title>
<path fill="none" stroke="black" d="M452.15,-267.44C476.65,-268.1 506.41,-268.91 534.01,-269.67"/>
<polygon fill="black" stroke="black" points="533.67,-273.16 543.76,-269.93 533.86,-266.16 533.67,-273.16"/>
</g>
<!-- Sediment management strategies -->
<g id="node19" class="node">
<title>Sediment management strategies</title>
<polygon fill="none" stroke="black" points="718.69,-36 522.69,-36 522.69,0 718.69,0 718.69,-36"/>
<text text-anchor="middle" x="620.69" y="-12.57" font-family="Times New Roman,serif" font-size="14.00">Sediment management strategies</text>
</g>
<!-- Flood control reservoirs&#45;&gt;Sediment management strategies -->
<g id="edge19" class="edge">
<title>Flood control reservoirs&#45;&gt;Sediment management strategies</title>
<path fill="none" stroke="black" d="M428.01,-87.52C449.82,-74.13 480.99,-56.43 510.25,-45 514.89,-43.19 519.68,-41.47 524.56,-39.85"/>
<polygon fill="black" stroke="black" points="525.42,-43.25 533.9,-36.89 523.31,-36.57 525.42,-43.25"/>
</g>
<!-- Emergency flood reservoirs -->
<g id="node20" class="node">
<title>Emergency flood reservoirs</title>
<polygon fill="none" stroke="black" points="705.94,-144 535.44,-144 535.44,-108 705.94,-108 705.94,-144"/>
<text text-anchor="middle" x="620.69" y="-120.58" font-family="Times New Roman,serif" font-size="14.00">Emergency flood reservoirs</text>
</g>
<!-- Flood control reservoirs&#45;&gt;Emergency flood reservoirs -->
<g id="edge20" class="edge">
<title>Flood control reservoirs&#45;&gt;Emergency flood reservoirs</title>
<path fill="none" stroke="black" d="M474.58,-112.83C490.38,-114.26 507.25,-115.79 523.69,-117.29"/>
<polygon fill="black" stroke="black" points="523.21,-120.76 533.48,-118.17 523.84,-113.78 523.21,-120.76"/>
</g>
<!-- Flood mitigation reservoirs -->
<g id="node21" class="node">
<title>Flood mitigation reservoirs</title>
<ellipse fill="none" stroke="black" cx="620.69" cy="-72" rx="110.44" ry="18"/>
<text text-anchor="middle" x="620.69" y="-66.58" font-family="Times New Roman,serif" font-size="14.00">Flood mitigation reservoirs</text>
</g>
<!-- Flood control reservoirs&#45;&gt;Flood mitigation reservoirs -->
<g id="edge21" class="edge">
<title>Flood control reservoirs&#45;&gt;Flood mitigation reservoirs</title>
<path fill="none" stroke="blue" d="M485.71,-92.68C499.61,-90.53 514.03,-88.31 528.05,-86.14"/>
<polygon fill="blue" stroke="blue" points="485.43,-89.18 476.08,-94.16 486.49,-96.1 485.43,-89.18"/>
<polygon fill="blue" stroke="blue" points="528.34,-89.64 537.69,-84.66 527.27,-82.72 528.34,-89.64"/>
</g>
<!-- Recreation -->
<g id="node18" class="node">
<title>Recreation</title>
<polygon fill="none" stroke="black" points="882.51,-213 806.51,-213 806.51,-177 882.51,-177 882.51,-213"/>
<text text-anchor="middle" x="844.51" y="-189.57" font-family="Times New Roman,serif" font-size="14.00">Recreation</text>
</g>
<!-- Recreational reservoirs&#45;&gt;Recreation -->
<g id="edge22" class="edge">
<title>Recreational reservoirs&#45;&gt;Recreation</title>
<path fill="none" stroke="black" d="M470.57,-184.48C537.76,-185.93 641.3,-188.32 731.14,-191 751.92,-191.62 774.86,-192.42 794.56,-193.14"/>
<polygon fill="black" stroke="black" points="794.42,-196.63 804.55,-193.5 794.68,-189.64 794.42,-196.63"/>
</g>
<!-- Mesotrophic lakes -->
<g id="node10" class="node">
<title>Mesotrophic lakes</title>
<polygon fill="none" stroke="black" points="903.89,-413 785.14,-413 785.14,-377 903.89,-377 903.89,-413"/>
<text text-anchor="middle" x="844.51" y="-389.57" font-family="Times New Roman,serif" font-size="14.00">Mesotrophic lakes</text>
</g>
<!-- Freshwater lakes&#45;&gt;Mesotrophic lakes -->
<g id="edge10" class="edge">
<title>Freshwater lakes&#45;&gt;Mesotrophic lakes</title>
<path fill="none" stroke="black" d="M675.67,-395C705.14,-395 741.96,-395 773.61,-395"/>
<polygon fill="black" stroke="black" points="773.49,-398.5 783.49,-395 773.49,-391.5 773.49,-398.5"/>
</g>
<!-- Oligotrophic lakes -->
<g id="node11" class="node">
<title>Oligotrophic lakes</title>
<polygon fill="none" stroke="black" points="903.51,-359 785.51,-359 785.51,-323 903.51,-323 903.51,-359"/>
<text text-anchor="middle" x="844.51" y="-335.57" font-family="Times New Roman,serif" font-size="14.00">Oligotrophic lakes</text>
</g>
<!-- Freshwater lakes&#45;&gt;Oligotrophic lakes -->
<g id="edge11" class="edge">
<title>Freshwater lakes&#45;&gt;Oligotrophic lakes</title>
<path fill="none" stroke="black" d="M675.67,-381.86C705.39,-374.63 742.57,-365.57 774.39,-357.83"/>
<polygon fill="black" stroke="black" points="775.04,-361.27 783.93,-355.51 773.38,-354.47 775.04,-361.27"/>
</g>
<!-- Eutrophic lakes -->
<g id="node12" class="node">
<title>Eutrophic lakes</title>
<polygon fill="none" stroke="black" points="895.64,-575 793.39,-575 793.39,-539 895.64,-539 895.64,-575"/>
<text text-anchor="middle" x="844.51" y="-551.58" font-family="Times New Roman,serif" font-size="14.00">Eutrophic lakes</text>
</g>
<!-- Freshwater lakes&#45;&gt;Eutrophic lakes -->
<g id="edge12" class="edge">
<title>Freshwater lakes&#45;&gt;Eutrophic lakes</title>
<path fill="none" stroke="black" d="M636.87,-413.24C661.49,-441.8 712.9,-497.19 767.14,-530 772.05,-532.97 777.34,-535.68 782.76,-538.14"/>
<polygon fill="black" stroke="black" points="781.31,-541.33 791.88,-541.97 784.02,-534.87 781.31,-541.33"/>
</g>
<!-- Lake ecosystem services -->
<g id="node13" class="node">
<title>Lake ecosystem services</title>
<polygon fill="none" stroke="black" points="921.89,-521 767.14,-521 767.14,-485 921.89,-485 921.89,-521"/>
<text text-anchor="middle" x="844.51" y="-497.57" font-family="Times New Roman,serif" font-size="14.00">Lake ecosystem services</text>
</g>
<!-- Freshwater lakes&#45;&gt;Lake ecosystem services -->
<g id="edge13" class="edge">
<title>Freshwater lakes&#45;&gt;Lake ecosystem services</title>
<path fill="none" stroke="black" d="M651.29,-413.43C680.16,-430.93 725.65,-457.27 767.14,-476 770.47,-477.5 773.92,-478.98 777.41,-480.42"/>
<polygon fill="black" stroke="black" points="776.02,-483.63 786.6,-484.06 778.6,-477.13 776.02,-483.63"/>
</g>
<!-- O natural lakes -->
<g id="node14" class="node">
<title>O natural lakes</title>
<polygon fill="none" stroke="black" points="893.76,-467 795.26,-467 795.26,-431 893.76,-431 893.76,-467"/>
<text text-anchor="middle" x="844.51" y="-443.57" font-family="Times New Roman,serif" font-size="14.00">O natural lakes</text>
</g>
<!-- Freshwater lakes&#45;&gt;O natural lakes -->
<g id="edge14" class="edge">
<title>Freshwater lakes&#45;&gt;O natural lakes</title>
<path fill="none" stroke="black" d="M675.67,-408.14C708.4,-416.11 750.19,-426.28 783.88,-434.48"/>
<polygon fill="black" stroke="black" points="782.96,-437.86 793.5,-436.83 784.61,-431.06 782.96,-437.86"/>
</g>
<!-- Freshwater lakes&#45;&gt;Reservoir lakes -->
<g id="edge15" class="edge">
<title>Freshwater lakes&#45;&gt;Reservoir lakes</title>
<path fill="none" stroke="black" d="M653.28,-376.59C688.96,-355.94 744.94,-324.02 767.14,-314 772.22,-311.71 777.55,-309.48 782.94,-307.35"/>
<polygon fill="black" stroke="black" points="783.82,-310.76 791.91,-303.92 781.32,-304.22 783.82,-310.76"/>
</g>
<!-- Recreational lakes&#45;&gt;Recreation -->
<g id="edge23" class="edge">
<title>Recreational lakes&#45;&gt;Recreation</title>
<path fill="none" stroke="black" d="M679.4,-212.02C715.38,-208.29 761.15,-203.54 795.21,-200.01"/>
<polygon fill="black" stroke="black" points="795.19,-203.53 804.78,-199.02 794.47,-196.57 795.19,-203.53"/>
</g>
<!-- Sediment trapping -->
<g id="node22" class="node">
<title>Sediment trapping</title>
<polygon fill="none" stroke="black" points="903.14,-36 785.89,-36 785.89,0 903.14,0 903.14,-36"/>
<text text-anchor="middle" x="844.51" y="-12.57" font-family="Times New Roman,serif" font-size="14.00">Sediment trapping</text>
</g>
<!-- Sediment management strategies&#45;&gt;Sediment trapping -->
<g id="edge24" class="edge">
<title>Sediment management strategies&#45;&gt;Sediment trapping</title>
<path fill="none" stroke="black" d="M718.99,-18C737.52,-18 756.57,-18 774.02,-18"/>
<polygon fill="black" stroke="black" points="774.01,-21.5 784.01,-18 774.01,-14.5 774.01,-21.5"/>
</g>
<!-- metadata_node -->
<g id="node23" class="node">
<title>metadata_node</title>
<text text-anchor="start" x="24" y="-279.2" font-family="Times New Roman,serif" font-size="14.00">Concepts: 21</text>
<text text-anchor="start" x="24" y="-263.45" font-family="Times New Roman,serif" font-size="14.00"> Subsumptions: 23</text>
<text text-anchor="start" x="24" y="-247.7" font-family="Times New Roman,serif" font-size="14.00"> Exploration Depth: 3</text>
<text text-anchor="start" x="24" y="-231.95" font-family="Times New Roman,serif" font-size="14.00"> Frequency Threshold: 5</text>
</g>
</g>
</svg>
