<?xml version="1.0" encoding="UTF-8" standalone="no"?>
<!DOCTYPE svg PUBLIC "-//W3C//DTD SVG 1.1//EN"
 "http://www.w3.org/Graphics/SVG/1.1/DTD/svg11.dtd">
<!-- Generated by graphviz version 10.0.1 (20240210.2158)
 -->
<!-- Pages: 1 -->
<svg width="669pt" height="692pt"
 viewBox="0.00 0.00 668.88 692.00" xmlns="http://www.w3.org/2000/svg" xmlns:xlink="http://www.w3.org/1999/xlink">
<g id="graph0" class="graph" transform="scale(1 1) rotate(0) translate(4 688)">
<polygon fill="white" stroke="none" points="-4,4 -4,-688 664.88,-688 664.88,4 -4,4"/>
<g id="clust1" class="cluster">
<title>cluster_metadata</title>
<polygon fill="none" stroke="black" points="8,-343 8,-445 193.75,-445 193.75,-343 8,-343"/>
</g>
<!-- Brazilian coastal ecosystems -->
<g id="node1" class="node">
<title>Brazilian coastal ecosystems</title>
<polygon fill="none" stroke="black" points="188.38,-333 13.38,-333 13.38,-297 188.38,-297 188.38,-333"/>
<text text-anchor="middle" x="100.88" y="-309.57" font-family="Times New Roman,serif" font-size="14.00">Brazilian coastal ecosystems</text>
</g>
<!-- Coral reefs -->
<g id="node2" class="node">
<title>Coral reefs</title>
<polygon fill="none" stroke="black" points="303.75,-576 226.25,-576 226.25,-540 303.75,-540 303.75,-576"/>
<text text-anchor="middle" x="265" y="-552.58" font-family="Times New Roman,serif" font-size="14.00">Coral reefs</text>
</g>
<!-- Brazilian coastal ecosystems&#45;&gt;Coral reefs -->
<g id="edge1" class="edge">
<title>Brazilian coastal ecosystems&#45;&gt;Coral reefs</title>
<path fill="none" stroke="black" d="M186.86,-333.37C189.29,-335.09 191.59,-336.96 193.75,-339 247.37,-389.75 260.18,-481.44 263.16,-528.45"/>
<polygon fill="black" stroke="black" points="259.65,-528.34 263.66,-538.15 266.64,-527.98 259.65,-528.34"/>
</g>
<!-- Lagoons -->
<g id="node3" class="node">
<title>Lagoons</title>
<polygon fill="none" stroke="black" points="297.38,-333 232.62,-333 232.62,-297 297.38,-297 297.38,-333"/>
<text text-anchor="middle" x="265" y="-309.57" font-family="Times New Roman,serif" font-size="14.00">Lagoons</text>
</g>
<!-- Brazilian coastal ecosystems&#45;&gt;Lagoons -->
<g id="edge2" class="edge">
<title>Brazilian coastal ecosystems&#45;&gt;Lagoons</title>
<path fill="none" stroke="black" d="M188.63,-315C199.89,-315 211,-315 221.08,-315"/>
<polygon fill="black" stroke="black" points="220.89,-318.5 230.89,-315 220.89,-311.5 220.89,-318.5"/>
</g>
<!-- Sand dunes -->
<g id="node4" class="node">
<title>Sand dunes</title>
<polygon fill="none" stroke="black" points="305.62,-279 224.38,-279 224.38,-243 305.62,-243 305.62,-279"/>
<text text-anchor="middle" x="265" y="-255.57" font-family="Times New Roman,serif" font-size="14.00">Sand dunes</text>
</g>
<!-- Brazilian coastal ecosystems&#45;&gt;Sand dunes -->
<g id="edge3" class="edge">
<title>Brazilian coastal ecosystems&#45;&gt;Sand dunes</title>
<path fill="none" stroke="black" d="M157.22,-296.57C175.37,-290.52 195.45,-283.83 213.25,-277.9"/>
<polygon fill="black" stroke="black" points="214.18,-281.28 222.56,-274.8 211.97,-274.64 214.18,-281.28"/>
</g>
<!-- Ribbon reefs -->
<g id="node5" class="node">
<title>Ribbon reefs</title>
<polygon fill="none" stroke="black" points="450.25,-684 361.5,-684 361.5,-648 450.25,-648 450.25,-684"/>
<text text-anchor="middle" x="405.88" y="-660.58" font-family="Times New Roman,serif" font-size="14.00">Ribbon reefs</text>
</g>
<!-- Coral reefs&#45;&gt;Ribbon reefs -->
<g id="edge4" class="edge">
<title>Coral reefs&#45;&gt;Ribbon reefs</title>
<path fill="none" stroke="black" d="M279.3,-576.17C293.18,-594.1 316.42,-621.33 341.62,-639 344.61,-641.09 347.78,-643.07 351.04,-644.93"/>
<polygon fill="black" stroke="black" points="349.24,-647.93 359.72,-649.45 352.47,-641.72 349.24,-647.93"/>
</g>
<!-- Coral fish -->
<g id="node6" class="node">
<title>Coral fish</title>
<polygon fill="none" stroke="black" points="441.25,-630 370.5,-630 370.5,-594 441.25,-594 441.25,-630"/>
<text text-anchor="middle" x="405.88" y="-606.58" font-family="Times New Roman,serif" font-size="14.00">Coral fish</text>
</g>
<!-- Coral reefs&#45;&gt;Coral fish -->
<g id="edge5" class="edge">
<title>Coral reefs&#45;&gt;Coral fish</title>
<path fill="none" stroke="black" d="M303.95,-572.76C321.19,-579.46 341.71,-587.44 359.74,-594.45"/>
<polygon fill="black" stroke="black" points="358.3,-597.65 368.89,-598.01 360.84,-591.12 358.3,-597.65"/>
</g>
<!-- Reef&#45;building corals -->
<g id="node7" class="node">
<title>Reef&#45;building corals</title>
<polygon fill="none" stroke="black" points="470.12,-576 341.62,-576 341.62,-540 470.12,-540 470.12,-576"/>
<text text-anchor="middle" x="405.88" y="-552.58" font-family="Times New Roman,serif" font-size="14.00">Reef&#45;building corals</text>
</g>
<!-- Coral reefs&#45;&gt;Reef&#45;building corals -->
<g id="edge6" class="edge">
<title>Coral reefs&#45;&gt;Reef&#45;building corals</title>
<path fill="none" stroke="black" d="M303.95,-558C312.08,-558 320.94,-558 329.93,-558"/>
<polygon fill="black" stroke="black" points="329.82,-561.5 339.82,-558 329.82,-554.5 329.82,-561.5"/>
</g>
<!-- Black coral reefs -->
<g id="node8" class="node">
<title>Black coral reefs</title>
<polygon fill="none" stroke="black" points="460.75,-522 351,-522 351,-486 460.75,-486 460.75,-522"/>
<text text-anchor="middle" x="405.88" y="-498.57" font-family="Times New Roman,serif" font-size="14.00">Black coral reefs</text>
</g>
<!-- Coral reefs&#45;&gt;Black coral reefs -->
<g id="edge7" class="edge">
<title>Coral reefs&#45;&gt;Black coral reefs</title>
<path fill="none" stroke="black" d="M303.95,-543.24C317.26,-538.07 332.53,-532.13 347.1,-526.47"/>
<polygon fill="black" stroke="black" points="348.08,-529.84 356.13,-522.95 345.54,-523.31 348.08,-529.84"/>
</g>
<!-- Aeolian lagoons -->
<g id="node9" class="node">
<title>Aeolian lagoons</title>
<polygon fill="none" stroke="black" points="458.5,-468 353.25,-468 353.25,-432 458.5,-432 458.5,-468"/>
<text text-anchor="middle" x="405.88" y="-444.57" font-family="Times New Roman,serif" font-size="14.00">Aeolian lagoons</text>
</g>
<!-- Lagoons&#45;&gt;Aeolian lagoons -->
<g id="edge8" class="edge">
<title>Lagoons&#45;&gt;Aeolian lagoons</title>
<path fill="none" stroke="black" d="M274.79,-333.42C286.88,-357.03 310.7,-397.9 341.62,-423 342.72,-423.89 343.85,-424.75 345.01,-425.59"/>
<polygon fill="black" stroke="black" points="342.75,-428.31 353.06,-430.75 346.53,-422.41 342.75,-428.31"/>
</g>
<!-- Freshwater lagoons -->
<g id="node10" class="node">
<title>Freshwater lagoons</title>
<polygon fill="none" stroke="black" points="468.25,-414 343.5,-414 343.5,-378 468.25,-378 468.25,-414"/>
<text text-anchor="middle" x="405.88" y="-390.57" font-family="Times New Roman,serif" font-size="14.00">Freshwater lagoons</text>
</g>
<!-- Lagoons&#45;&gt;Freshwater lagoons -->
<g id="edge9" class="edge">
<title>Lagoons&#45;&gt;Freshwater lagoons</title>
<path fill="none" stroke="black" d="M288.97,-333.39C303.53,-344.54 323.06,-358.57 341.62,-369 343.78,-370.21 346,-371.4 348.27,-372.57"/>
<polygon fill="black" stroke="black" points="346.49,-375.6 357.01,-376.86 349.57,-369.31 346.49,-375.6"/>
</g>
<!-- Artificial lagoons -->
<g id="node11" class="node">
<title>Artificial lagoons</title>
<polygon fill="none" stroke="black" points="461.12,-360 350.62,-360 350.62,-324 461.12,-324 461.12,-360"/>
<text text-anchor="middle" x="405.88" y="-336.57" font-family="Times New Roman,serif" font-size="14.00">Artificial lagoons</text>
</g>
<!-- Lagoons&#45;&gt;Artificial lagoons -->
<g id="edge10" class="edge">
<title>Lagoons&#45;&gt;Artificial lagoons</title>
<path fill="none" stroke="black" d="M297.86,-321.19C310.24,-323.6 324.9,-326.45 339.34,-329.26"/>
<polygon fill="black" stroke="black" points="338.32,-332.63 348.8,-331.1 339.65,-325.75 338.32,-332.63"/>
</g>
<!-- Intermittent lagoons -->
<g id="node12" class="node">
<title>Intermittent lagoons</title>
<polygon fill="none" stroke="black" points="469,-306 342.75,-306 342.75,-270 469,-270 469,-306"/>
<text text-anchor="middle" x="405.88" y="-282.57" font-family="Times New Roman,serif" font-size="14.00">Intermittent lagoons</text>
</g>
<!-- Lagoons&#45;&gt;Intermittent lagoons -->
<g id="edge11" class="edge">
<title>Lagoons&#45;&gt;Intermittent lagoons</title>
<path fill="none" stroke="black" d="M297.86,-308.81C307.93,-306.85 319.52,-304.6 331.26,-302.31"/>
<polygon fill="black" stroke="black" points="331.89,-305.75 341.04,-300.41 330.56,-298.88 331.89,-305.75"/>
</g>
<!-- Permanent lagoons -->
<g id="node13" class="node">
<title>Permanent lagoons</title>
<polygon fill="none" stroke="black" points="466.75,-252 345,-252 345,-216 466.75,-216 466.75,-252"/>
<text text-anchor="middle" x="405.88" y="-228.57" font-family="Times New Roman,serif" font-size="14.00">Permanent lagoons</text>
</g>
<!-- Lagoons&#45;&gt;Permanent lagoons -->
<g id="edge12" class="edge">
<title>Lagoons&#45;&gt;Permanent lagoons</title>
<path fill="none" stroke="black" d="M293.4,-296.57C297.52,-293.73 301.7,-290.81 305.62,-288 321.89,-276.37 324.3,-271 341.62,-261 343.77,-259.76 345.98,-258.55 348.23,-257.36"/>
<polygon fill="black" stroke="black" points="349.55,-260.62 356.95,-253.03 346.43,-254.35 349.55,-260.62"/>
</g>
<!-- Salt water lagoons -->
<g id="node14" class="node">
<title>Salt water lagoons</title>
<polygon fill="none" stroke="black" points="464.88,-144 346.88,-144 346.88,-108 464.88,-108 464.88,-144"/>
<text text-anchor="middle" x="405.88" y="-120.58" font-family="Times New Roman,serif" font-size="14.00">Salt water lagoons</text>
</g>
<!-- Lagoons&#45;&gt;Salt water lagoons -->
<g id="edge13" class="edge">
<title>Lagoons&#45;&gt;Salt water lagoons</title>
<path fill="none" stroke="black" d="M297.78,-296.61C300.71,-294 303.41,-291.12 305.62,-288 341.54,-237.34 300.96,-199.93 341.62,-153 341.98,-152.59 342.34,-152.19 342.7,-151.8"/>
<polygon fill="black" stroke="black" points="344.87,-154.55 350.12,-145.34 340.28,-149.27 344.87,-154.55"/>
</g>
<!-- Brackish lagoons -->
<g id="node15" class="node">
<title>Brackish lagoons</title>
<polygon fill="none" stroke="black" points="461.88,-198 349.88,-198 349.88,-162 461.88,-162 461.88,-198"/>
<text text-anchor="middle" x="405.88" y="-174.57" font-family="Times New Roman,serif" font-size="14.00">Brackish lagoons</text>
</g>
<!-- Lagoons&#45;&gt;Brackish lagoons -->
<g id="edge14" class="edge">
<title>Lagoons&#45;&gt;Brackish lagoons</title>
<path fill="none" stroke="black" d="M296.9,-296.57C300.07,-293.93 303.06,-291.07 305.62,-288 330.87,-257.75 313.56,-234.65 341.62,-207 342.23,-206.4 342.85,-205.82 343.49,-205.25"/>
<polygon fill="black" stroke="black" points="345.37,-208.21 351.22,-199.38 341.14,-202.64 345.37,-208.21"/>
</g>
<!-- Barrier lagoons -->
<g id="node16" class="node">
<title>Barrier lagoons</title>
<polygon fill="none" stroke="black" points="633.88,-144 533.12,-144 533.12,-108 633.88,-108 633.88,-144"/>
<text text-anchor="middle" x="583.5" y="-120.58" font-family="Times New Roman,serif" font-size="14.00">Barrier lagoons</text>
</g>
<!-- Salt water lagoons&#45;&gt;Barrier lagoons -->
<g id="edge16" class="edge">
<title>Salt water lagoons&#45;&gt;Barrier lagoons</title>
<path fill="none" stroke="black" d="M465.36,-126C483.37,-126 503.24,-126 521.42,-126"/>
<polygon fill="black" stroke="black" points="521.27,-129.5 531.27,-126 521.27,-122.5 521.27,-129.5"/>
</g>
<!-- Estuarine lagoons -->
<g id="node17" class="node">
<title>Estuarine lagoons</title>
<polygon fill="none" stroke="black" points="640.62,-198 526.38,-198 526.38,-162 640.62,-162 640.62,-198"/>
<text text-anchor="middle" x="583.5" y="-174.57" font-family="Times New Roman,serif" font-size="14.00">Estuarine lagoons</text>
</g>
<!-- Salt water lagoons&#45;&gt;Estuarine lagoons -->
<g id="edge18" class="edge">
<title>Salt water lagoons&#45;&gt;Estuarine lagoons</title>
<path fill="none" stroke="black" d="M465.36,-143.98C481.4,-148.91 498.92,-154.3 515.4,-159.37"/>
<polygon fill="black" stroke="black" points="514.03,-162.61 524.62,-162.2 516.09,-155.92 514.03,-162.61"/>
</g>
<!-- Tidal lagoons -->
<g id="node18" class="node">
<title>Tidal lagoons</title>
<polygon fill="none" stroke="black" points="629.38,-90 537.62,-90 537.62,-54 629.38,-54 629.38,-90"/>
<text text-anchor="middle" x="583.5" y="-66.58" font-family="Times New Roman,serif" font-size="14.00">Tidal lagoons</text>
</g>
<!-- Salt water lagoons&#45;&gt;Tidal lagoons -->
<g id="edge15" class="edge">
<title>Salt water lagoons&#45;&gt;Tidal lagoons</title>
<path fill="none" stroke="black" d="M465.36,-108.02C485.05,-101.96 506.97,-95.22 526.47,-89.23"/>
<polygon fill="black" stroke="black" points="527.35,-92.62 535.88,-86.33 525.29,-85.93 527.35,-92.62"/>
</g>
<!-- Barrier&#45;enclosed lagoons -->
<g id="node19" class="node">
<title>Barrier&#45;enclosed lagoons</title>
<polygon fill="none" stroke="black" points="660.88,-36 506.12,-36 506.12,0 660.88,0 660.88,-36"/>
<text text-anchor="middle" x="583.5" y="-12.57" font-family="Times New Roman,serif" font-size="14.00">Barrier&#45;enclosed lagoons</text>
</g>
<!-- Salt water lagoons&#45;&gt;Barrier&#45;enclosed lagoons -->
<g id="edge17" class="edge">
<title>Salt water lagoons&#45;&gt;Barrier&#45;enclosed lagoons</title>
<path fill="none" stroke="black" d="M425.19,-107.73C444.09,-89.72 475.11,-62.44 506.12,-45 508.45,-43.69 510.85,-42.43 513.31,-41.21"/>
<polygon fill="black" stroke="black" points="514.62,-44.46 522.24,-37.1 511.7,-38.1 514.62,-44.46"/>
</g>
<!-- Brackish lagoons&#45;&gt;Estuarine lagoons -->
<g id="edge19" class="edge">
<title>Brackish lagoons&#45;&gt;Estuarine lagoons</title>
<path fill="none" stroke="black" d="M461.96,-180C478.71,-180 497.32,-180 514.8,-180"/>
<polygon fill="black" stroke="black" points="514.58,-183.5 524.58,-180 514.58,-176.5 514.58,-183.5"/>
</g>
<!-- metadata_node -->
<g id="node20" class="node">
<title>metadata_node</title>
<text text-anchor="start" x="24" y="-420.07" font-family="Times New Roman,serif" font-size="14.00">Concepts: 19</text>
<text text-anchor="start" x="24" y="-404.32" font-family="Times New Roman,serif" font-size="14.00"> Subsumptions: 19</text>
<text text-anchor="start" x="24" y="-388.57" font-family="Times New Roman,serif" font-size="14.00"> Exploration Depth: 3</text>
<text text-anchor="start" x="24" y="-372.82" font-family="Times New Roman,serif" font-size="14.00"> Frequency Threshold: 10</text>
<text text-anchor="start" x="24" y="-357.07" font-family="Times New Roman,serif" font-size="14.00"> Chosen Model: gpt&#45;4&#45;0613</text>
</g>
</g>
</svg>
