<?xml version="1.0" encoding="UTF-8" standalone="no"?>
<!DOCTYPE svg PUBLIC "-//W3C//DTD SVG 1.1//EN"
 "http://www.w3.org/Graphics/SVG/1.1/DTD/svg11.dtd">
<!-- Generated by graphviz version 10.0.1 (20240210.2158)
 -->
<!-- Pages: 1 -->
<svg width="1341pt" height="1170pt"
 viewBox="0.00 0.00 1341.38 1170.00" xmlns="http://www.w3.org/2000/svg" xmlns:xlink="http://www.w3.org/1999/xlink">
<g id="graph0" class="graph" transform="scale(1 1) rotate(0) translate(4 1166)">
<polygon fill="white" stroke="none" points="-4,4 -4,-1166 1337.38,-1166 1337.38,4 -4,4"/>
<g id="clust1" class="cluster">
<title>cluster_metadata</title>
<polygon fill="none" stroke="black" points="8,-470 8,-572 193.75,-572 193.75,-470 8,-470"/>
</g>
<!-- Brazilian Coastal ecosystems -->
<g id="node1" class="node">
<title>Brazilian Coastal ecosystems</title>
<polygon fill="none" stroke="black" points="189.88,-460 11.88,-460 11.88,-424 189.88,-424 189.88,-460"/>
<text text-anchor="middle" x="100.88" y="-436.57" font-family="Times New Roman,serif" font-size="14.00">Brazilian Coastal ecosystems</text>
</g>
<!-- Coral reefs -->
<g id="node2" class="node">
<title>Coral reefs</title>
<polygon fill="none" stroke="black" points="305.25,-1027 227.75,-1027 227.75,-991 305.25,-991 305.25,-1027"/>
<text text-anchor="middle" x="266.5" y="-1003.58" font-family="Times New Roman,serif" font-size="14.00">Coral reefs</text>
</g>
<!-- Brazilian Coastal ecosystems&#45;&gt;Coral reefs -->
<g id="edge1" class="edge">
<title>Brazilian Coastal ecosystems&#45;&gt;Coral reefs</title>
<path fill="none" stroke="black" d="M187.74,-460.2C189.88,-461.97 191.9,-463.9 193.75,-466 261.79,-543.06 266.08,-877.28 265.77,-979.31"/>
<polygon fill="black" stroke="black" points="262.27,-979.04 265.72,-989.06 269.27,-979.07 262.27,-979.04"/>
</g>
<!-- Mangroves -->
<g id="node3" class="node">
<title>Mangroves</title>
<polygon fill="none" stroke="black" points="305.62,-460 227.38,-460 227.38,-424 305.62,-424 305.62,-460"/>
<text text-anchor="middle" x="266.5" y="-436.57" font-family="Times New Roman,serif" font-size="14.00">Mangroves</text>
</g>
<!-- Brazilian Coastal ecosystems&#45;&gt;Mangroves -->
<g id="edge2" class="edge">
<title>Brazilian Coastal ecosystems&#45;&gt;Mangroves</title>
<path fill="none" stroke="black" d="M189.91,-442C198.76,-442 207.5,-442 215.73,-442"/>
<polygon fill="black" stroke="black" points="215.47,-445.5 225.47,-442 215.47,-438.5 215.47,-445.5"/>
</g>
<!-- Sand dunes -->
<g id="node4" class="node">
<title>Sand dunes</title>
<polygon fill="none" stroke="black" points="307.12,-198 225.88,-198 225.88,-162 307.12,-162 307.12,-198"/>
<text text-anchor="middle" x="266.5" y="-174.57" font-family="Times New Roman,serif" font-size="14.00">Sand dunes</text>
</g>
<!-- Brazilian Coastal ecosystems&#45;&gt;Sand dunes -->
<g id="edge3" class="edge">
<title>Brazilian Coastal ecosystems&#45;&gt;Sand dunes</title>
<path fill="none" stroke="black" d="M113.38,-423.58C141.6,-378.38 214.41,-261.81 248.02,-207.99"/>
<polygon fill="black" stroke="black" points="250.88,-210.02 253.21,-199.69 244.94,-206.31 250.88,-210.02"/>
</g>
<!-- Atolls -->
<g id="node5" class="node">
<title>Atolls</title>
<polygon fill="none" stroke="black" points="443.75,-1162 389.75,-1162 389.75,-1126 443.75,-1126 443.75,-1162"/>
<text text-anchor="middle" x="416.75" y="-1138.58" font-family="Times New Roman,serif" font-size="14.00">Atolls</text>
</g>
<!-- Coral reefs&#45;&gt;Atolls -->
<g id="edge4" class="edge">
<title>Coral reefs&#45;&gt;Atolls</title>
<path fill="none" stroke="black" d="M275.9,-1027.24C287.73,-1051.03 311.43,-1092.51 343.12,-1117 353.47,-1125 366.44,-1130.82 378.54,-1134.95"/>
<polygon fill="black" stroke="black" points="377.28,-1138.23 387.86,-1137.85 379.35,-1131.54 377.28,-1138.23"/>
</g>
<!-- Barrier reefs -->
<g id="node6" class="node">
<title>Barrier reefs</title>
<polygon fill="none" stroke="black" points="458.88,-1108 374.62,-1108 374.62,-1072 458.88,-1072 458.88,-1108"/>
<text text-anchor="middle" x="416.75" y="-1084.58" font-family="Times New Roman,serif" font-size="14.00">Barrier reefs</text>
</g>
<!-- Coral reefs&#45;&gt;Barrier reefs -->
<g id="edge5" class="edge">
<title>Coral reefs&#45;&gt;Barrier reefs</title>
<path fill="none" stroke="black" d="M289.97,-1027.45C304.5,-1038.76 324.17,-1052.94 343.12,-1063 349.67,-1066.47 356.76,-1069.7 363.86,-1072.63"/>
<polygon fill="black" stroke="black" points="362.21,-1075.75 372.8,-1076.15 364.78,-1069.23 362.21,-1075.75"/>
</g>
<!-- Fringing reefs -->
<g id="node7" class="node">
<title>Fringing reefs</title>
<polygon fill="none" stroke="black" points="463,-1054 370.5,-1054 370.5,-1018 463,-1018 463,-1054"/>
<text text-anchor="middle" x="416.75" y="-1030.58" font-family="Times New Roman,serif" font-size="14.00">Fringing reefs</text>
</g>
<!-- Coral reefs&#45;&gt;Fringing reefs -->
<g id="edge6" class="edge">
<title>Coral reefs&#45;&gt;Fringing reefs</title>
<path fill="none" stroke="black" d="M305.68,-1015.95C321.87,-1018.9 341.08,-1022.4 358.89,-1025.64"/>
<polygon fill="black" stroke="black" points="358.09,-1029.06 368.56,-1027.41 359.35,-1022.17 358.09,-1029.06"/>
</g>
<!-- Reef&#45;building corals -->
<g id="node8" class="node">
<title>Reef&#45;building corals</title>
<polygon fill="none" stroke="black" points="481,-1000 352.5,-1000 352.5,-964 481,-964 481,-1000"/>
<text text-anchor="middle" x="416.75" y="-976.58" font-family="Times New Roman,serif" font-size="14.00">Reef&#45;building corals</text>
</g>
<!-- Coral reefs&#45;&gt;Reef&#45;building corals -->
<g id="edge7" class="edge">
<title>Coral reefs&#45;&gt;Reef&#45;building corals</title>
<path fill="none" stroke="black" d="M305.68,-1002.05C316.52,-1000.07 328.71,-997.85 340.92,-995.63"/>
<polygon fill="black" stroke="black" points="341.41,-999.1 350.62,-993.86 340.16,-992.21 341.41,-999.1"/>
</g>
<!-- Coral algae -->
<g id="node9" class="node">
<title>Coral algae</title>
<polygon fill="none" stroke="black" points="455.88,-946 377.62,-946 377.62,-910 455.88,-910 455.88,-946"/>
<text text-anchor="middle" x="416.75" y="-922.58" font-family="Times New Roman,serif" font-size="14.00">Coral algae</text>
</g>
<!-- Coral reefs&#45;&gt;Coral algae -->
<g id="edge8" class="edge">
<title>Coral reefs&#45;&gt;Coral algae</title>
<path fill="none" stroke="black" d="M289.97,-990.55C304.5,-979.24 324.17,-965.06 343.12,-955 350.48,-951.1 358.52,-947.5 366.48,-944.3"/>
<polygon fill="black" stroke="black" points="367.74,-947.57 375.82,-940.72 365.23,-941.03 367.74,-947.57"/>
</g>
<!-- Mangrove conservation -->
<g id="node10" class="node">
<title>Mangrove conservation</title>
<polygon fill="none" stroke="black" points="490.38,-757 343.12,-757 343.12,-721 490.38,-721 490.38,-757"/>
<text text-anchor="middle" x="416.75" y="-733.58" font-family="Times New Roman,serif" font-size="14.00">Mangrove conservation</text>
</g>
<!-- Mangroves&#45;&gt;Mangrove conservation -->
<g id="edge9" class="edge">
<title>Mangroves&#45;&gt;Mangrove conservation</title>
<path fill="none" stroke="black" d="M276.55,-460.13C301.52,-510.15 371.51,-650.37 401.65,-710.75"/>
<polygon fill="black" stroke="black" points="398.36,-711.99 405.95,-719.37 404.62,-708.86 398.36,-711.99"/>
</g>
<!-- Mangrove flora -->
<g id="node11" class="node">
<title>Mangrove flora</title>
<polygon fill="none" stroke="black" points="467.5,-460 366,-460 366,-424 467.5,-424 467.5,-460"/>
<text text-anchor="middle" x="416.75" y="-436.57" font-family="Times New Roman,serif" font-size="14.00">Mangrove flora</text>
</g>
<!-- Mangroves&#45;&gt;Mangrove flora -->
<g id="edge10" class="edge">
<title>Mangroves&#45;&gt;Mangrove flora</title>
<path fill="none" stroke="black" d="M306.06,-442C320.84,-442 338.09,-442 354.48,-442"/>
<polygon fill="black" stroke="black" points="354.13,-445.5 364.13,-442 354.13,-438.5 354.13,-445.5"/>
</g>
<!-- Mangrove forest structure -->
<g id="node12" class="node">
<title>Mangrove forest structure</title>
<polygon fill="none" stroke="black" points="758,-244 597.25,-244 597.25,-208 758,-208 758,-244"/>
<text text-anchor="middle" x="677.62" y="-220.57" font-family="Times New Roman,serif" font-size="14.00">Mangrove forest structure</text>
</g>
<!-- Mangroves&#45;&gt;Mangrove forest structure -->
<g id="edge11" class="edge">
<title>Mangroves&#45;&gt;Mangrove forest structure</title>
<path fill="none" stroke="black" d="M286.05,-423.67C326.11,-385.25 425.33,-296.22 526.38,-253 544.98,-245.04 565.86,-239.43 585.99,-235.47"/>
<polygon fill="black" stroke="black" points="586.39,-238.95 595.59,-233.71 585.12,-232.07 586.39,-238.95"/>
</g>
<!-- Barchan dunes -->
<g id="node13" class="node">
<title>Barchan dunes</title>
<polygon fill="none" stroke="black" points="466,-198 367.5,-198 367.5,-162 466,-162 466,-198"/>
<text text-anchor="middle" x="416.75" y="-174.57" font-family="Times New Roman,serif" font-size="14.00">Barchan dunes</text>
</g>
<!-- Sand dunes&#45;&gt;Barchan dunes -->
<g id="edge12" class="edge">
<title>Sand dunes&#45;&gt;Barchan dunes</title>
<path fill="none" stroke="black" d="M307.62,-180C322.53,-180 339.78,-180 356.07,-180"/>
<polygon fill="black" stroke="black" points="355.63,-183.5 365.63,-180 355.63,-176.5 355.63,-183.5"/>
</g>
<!-- Coastal sand dunes -->
<g id="node14" class="node">
<title>Coastal sand dunes</title>
<polygon fill="none" stroke="black" points="479.12,-144 354.38,-144 354.38,-108 479.12,-108 479.12,-144"/>
<text text-anchor="middle" x="416.75" y="-120.58" font-family="Times New Roman,serif" font-size="14.00">Coastal sand dunes</text>
</g>
<!-- Sand dunes&#45;&gt;Coastal sand dunes -->
<g id="edge13" class="edge">
<title>Sand dunes&#45;&gt;Coastal sand dunes</title>
<path fill="none" stroke="black" d="M307.62,-165.39C321.97,-160.16 338.5,-154.14 354.24,-148.41"/>
<polygon fill="black" stroke="black" points="355.36,-151.72 363.55,-145.01 352.96,-145.15 355.36,-151.72"/>
</g>
<!-- Coral fish -->
<g id="node15" class="node">
<title>Coral fish</title>
<polygon fill="none" stroke="black" points="713,-1162 642.25,-1162 642.25,-1126 713,-1126 713,-1162"/>
<text text-anchor="middle" x="677.62" y="-1138.58" font-family="Times New Roman,serif" font-size="14.00">Coral fish</text>
</g>
<!-- Barrier reefs&#45;&gt;Coral fish -->
<g id="edge14" class="edge">
<title>Barrier reefs&#45;&gt;Coral fish</title>
<path fill="none" stroke="black" d="M459.12,-1100.96C479.33,-1106.14 504.05,-1112.22 526.38,-1117 561.15,-1124.44 600.75,-1131.5 630.57,-1136.53"/>
<polygon fill="black" stroke="black" points="629.95,-1139.98 640.39,-1138.17 631.11,-1133.07 629.95,-1139.98"/>
</g>
<!-- Reef invertebrates -->
<g id="node16" class="node">
<title>Reef invertebrates</title>
<polygon fill="none" stroke="black" points="735.88,-1108 619.38,-1108 619.38,-1072 735.88,-1072 735.88,-1108"/>
<text text-anchor="middle" x="677.62" y="-1084.58" font-family="Times New Roman,serif" font-size="14.00">Reef invertebrates</text>
</g>
<!-- Barrier reefs&#45;&gt;Reef invertebrates -->
<g id="edge15" class="edge">
<title>Barrier reefs&#45;&gt;Reef invertebrates</title>
<path fill="none" stroke="black" d="M459.34,-1090C499.35,-1090 560.56,-1090 607.83,-1090"/>
<polygon fill="black" stroke="black" points="607.7,-1093.5 617.7,-1090 607.7,-1086.5 607.7,-1093.5"/>
</g>
<!-- Fringing reefs&#45;&gt;Coral fish -->
<g id="edge16" class="edge">
<title>Fringing reefs&#45;&gt;Coral fish</title>
<path fill="none" stroke="black" d="M463.46,-1048.02C472.95,-1051.83 482.46,-1056.74 490.38,-1063 513,-1080.9 502.25,-1101.19 526.38,-1117 557.27,-1137.25 599.06,-1143.46 630.73,-1144.9"/>
<polygon fill="black" stroke="black" points="630.28,-1148.39 640.38,-1145.19 630.49,-1141.4 630.28,-1148.39"/>
</g>
<!-- Fringing reefs&#45;&gt;Reef invertebrates -->
<g id="edge17" class="edge">
<title>Fringing reefs&#45;&gt;Reef invertebrates</title>
<path fill="none" stroke="black" d="M463.31,-1048.03C482.69,-1052.97 505.57,-1058.55 526.38,-1063 552.9,-1068.67 582.23,-1074.13 607.89,-1078.63"/>
<polygon fill="black" stroke="black" points="607.07,-1082.04 617.53,-1080.3 608.27,-1075.14 607.07,-1082.04"/>
</g>
<!-- Stony corals -->
<g id="node17" class="node">
<title>Stony corals</title>
<polygon fill="none" stroke="black" points="720.88,-1054 634.38,-1054 634.38,-1018 720.88,-1018 720.88,-1054"/>
<text text-anchor="middle" x="677.62" y="-1030.58" font-family="Times New Roman,serif" font-size="14.00">Stony corals</text>
</g>
<!-- Fringing reefs&#45;&gt;Stony corals -->
<g id="edge18" class="edge">
<title>Fringing reefs&#45;&gt;Stony corals</title>
<path fill="none" stroke="black" d="M463.44,-1036C507.86,-1036 575.35,-1036 622.46,-1036"/>
<polygon fill="black" stroke="black" points="622.46,-1039.5 632.46,-1036 622.46,-1032.5 622.46,-1039.5"/>
</g>
<!-- Reef&#45;building corals&#45;&gt;Stony corals -->
<g id="edge23" class="edge">
<title>Reef&#45;building corals&#45;&gt;Stony corals</title>
<path fill="none" stroke="black" d="M481.34,-998.55C496.09,-1002.18 511.74,-1005.87 526.38,-1009 558.29,-1015.83 594.27,-1022.33 623.02,-1027.25"/>
<polygon fill="black" stroke="black" points="622.12,-1030.65 632.57,-1028.87 623.29,-1023.74 622.12,-1030.65"/>
</g>
<!-- Encrusting corals -->
<g id="node21" class="node">
<title>Encrusting corals</title>
<polygon fill="none" stroke="black" points="734,-1000 621.25,-1000 621.25,-964 734,-964 734,-1000"/>
<text text-anchor="middle" x="677.62" y="-976.58" font-family="Times New Roman,serif" font-size="14.00">Encrusting corals</text>
</g>
<!-- Reef&#45;building corals&#45;&gt;Encrusting corals -->
<g id="edge22" class="edge">
<title>Reef&#45;building corals&#45;&gt;Encrusting corals</title>
<path fill="none" stroke="black" d="M481.41,-982C520.38,-982 570.18,-982 609.73,-982"/>
<polygon fill="black" stroke="black" points="609.61,-985.5 619.61,-982 609.61,-978.5 609.61,-985.5"/>
</g>
<!-- Brain corals -->
<g id="node22" class="node">
<title>Brain corals</title>
<polygon fill="none" stroke="black" points="719,-946 636.25,-946 636.25,-910 719,-910 719,-946"/>
<text text-anchor="middle" x="677.62" y="-922.58" font-family="Times New Roman,serif" font-size="14.00">Brain corals</text>
</g>
<!-- Reef&#45;building corals&#45;&gt;Brain corals -->
<g id="edge24" class="edge">
<title>Reef&#45;building corals&#45;&gt;Brain corals</title>
<path fill="none" stroke="black" d="M481.34,-965.45C496.09,-961.82 511.74,-958.13 526.38,-955 558.98,-948.03 595.82,-941.39 624.86,-936.44"/>
<polygon fill="black" stroke="black" points="625.22,-939.93 634.5,-934.81 624.05,-933.02 625.22,-939.93"/>
</g>
<!-- Mangrove research and monitoring -->
<g id="node23" class="node">
<title>Mangrove research and monitoring</title>
<polygon fill="none" stroke="black" points="782.75,-838 572.5,-838 572.5,-802 782.75,-802 782.75,-838"/>
<text text-anchor="middle" x="677.62" y="-814.58" font-family="Times New Roman,serif" font-size="14.00">Mangrove research and monitoring</text>
</g>
<!-- Mangrove conservation&#45;&gt;Mangrove research and monitoring -->
<g id="edge25" class="edge">
<title>Mangrove conservation&#45;&gt;Mangrove research and monitoring</title>
<path fill="none" stroke="black" d="M448.59,-757.28C469.8,-769.11 498.98,-783.94 526.38,-793 537.55,-796.7 549.37,-799.92 561.27,-802.73"/>
<polygon fill="black" stroke="black" points="560.21,-806.08 570.73,-804.86 561.74,-799.25 560.21,-806.08"/>
</g>
<!-- Mangrove wildlife protection -->
<g id="node24" class="node">
<title>Mangrove wildlife protection</title>
<polygon fill="none" stroke="black" points="765.88,-730 589.38,-730 589.38,-694 765.88,-694 765.88,-730"/>
<text text-anchor="middle" x="677.62" y="-706.58" font-family="Times New Roman,serif" font-size="14.00">Mangrove wildlife protection</text>
</g>
<!-- Mangrove conservation&#45;&gt;Mangrove wildlife protection -->
<g id="edge26" class="edge">
<title>Mangrove conservation&#45;&gt;Mangrove wildlife protection</title>
<path fill="none" stroke="black" d="M490.55,-731.41C517.61,-728.58 548.79,-725.33 577.8,-722.31"/>
<polygon fill="black" stroke="black" points="578.13,-725.79 587.71,-721.27 577.41,-718.83 578.13,-725.79"/>
</g>
<!-- Pollution control in mangrove conservation -->
<g id="node25" class="node">
<title>Pollution control in mangrove conservation</title>
<polygon fill="none" stroke="black" points="805.62,-892 549.62,-892 549.62,-856 805.62,-856 805.62,-892"/>
<text text-anchor="middle" x="677.62" y="-868.58" font-family="Times New Roman,serif" font-size="14.00">Pollution control in mangrove conservation</text>
</g>
<!-- Mangrove conservation&#45;&gt;Pollution control in mangrove conservation -->
<g id="edge27" class="edge">
<title>Mangrove conservation&#45;&gt;Pollution control in mangrove conservation</title>
<path fill="none" stroke="black" d="M430.47,-757.3C448.68,-781.95 484.63,-825.26 526.38,-847 530.36,-849.08 534.48,-850.99 538.69,-852.77"/>
<polygon fill="black" stroke="black" points="537.34,-856 547.93,-856.34 539.86,-849.47 537.34,-856"/>
</g>
<!-- Climate change adaptation for mangroves -->
<g id="node26" class="node">
<title>Climate change adaptation for mangroves</title>
<polygon fill="none" stroke="black" points="801.12,-784 554.12,-784 554.12,-748 801.12,-748 801.12,-784"/>
<text text-anchor="middle" x="677.62" y="-760.58" font-family="Times New Roman,serif" font-size="14.00">Climate change adaptation for mangroves</text>
</g>
<!-- Mangrove conservation&#45;&gt;Climate change adaptation for mangroves -->
<g id="edge28" class="edge">
<title>Mangrove conservation&#45;&gt;Climate change adaptation for mangroves</title>
<path fill="none" stroke="black" d="M490.55,-746.59C506.82,-748.29 524.58,-750.14 542.46,-752.01"/>
<polygon fill="black" stroke="black" points="542.08,-755.49 552.39,-753.04 542.81,-748.52 542.08,-755.49"/>
</g>
<!-- Climate change adaptation strategies for mangroves -->
<g id="node27" class="node">
<title>Climate change adaptation strategies for mangroves</title>
<polygon fill="none" stroke="black" points="828.88,-676 526.38,-676 526.38,-640 828.88,-640 828.88,-676"/>
<text text-anchor="middle" x="677.62" y="-652.58" font-family="Times New Roman,serif" font-size="14.00">Climate change adaptation strategies for mangroves</text>
</g>
<!-- Mangrove conservation&#45;&gt;Climate change adaptation strategies for mangroves -->
<g id="edge29" class="edge">
<title>Mangrove conservation&#45;&gt;Climate change adaptation strategies for mangroves</title>
<path fill="none" stroke="black" d="M448.59,-720.72C469.8,-708.89 498.98,-694.06 526.38,-685 532.58,-682.95 538.99,-681.04 545.49,-679.27"/>
<polygon fill="black" stroke="black" points="546.26,-682.68 555.06,-676.79 544.5,-675.91 546.26,-682.68"/>
</g>
<!-- River mangroves -->
<g id="node28" class="node">
<title>River mangroves</title>
<polygon fill="none" stroke="black" points="732.88,-514 622.38,-514 622.38,-478 732.88,-478 732.88,-514"/>
<text text-anchor="middle" x="677.62" y="-490.57" font-family="Times New Roman,serif" font-size="14.00">River mangroves</text>
</g>
<!-- Mangrove flora&#45;&gt;River mangroves -->
<g id="edge30" class="edge">
<title>Mangrove flora&#45;&gt;River mangroves</title>
<path fill="none" stroke="black" d="M467.88,-455.19C486.23,-459.83 507.18,-464.89 526.38,-469 554.04,-474.92 584.76,-480.59 611.17,-485.2"/>
<polygon fill="black" stroke="black" points="610.27,-488.6 620.72,-486.85 611.46,-481.7 610.27,-488.6"/>
</g>
<!-- Saltwater mangroves -->
<g id="node29" class="node">
<title>Saltwater mangroves</title>
<polygon fill="none" stroke="black" points="743.38,-460 611.88,-460 611.88,-424 743.38,-424 743.38,-460"/>
<text text-anchor="middle" x="677.62" y="-436.57" font-family="Times New Roman,serif" font-size="14.00">Saltwater mangroves</text>
</g>
<!-- Mangrove flora&#45;&gt;Saltwater mangroves -->
<g id="edge31" class="edge">
<title>Mangrove flora&#45;&gt;Saltwater mangroves</title>
<path fill="none" stroke="black" d="M467.97,-442C505.55,-442 557.6,-442 600.31,-442"/>
<polygon fill="black" stroke="black" points="600.29,-445.5 610.29,-442 600.29,-438.5 600.29,-445.5"/>
</g>
<!-- Eastern mangrove -->
<g id="node30" class="node">
<title>Eastern mangrove</title>
<polygon fill="none" stroke="black" points="735.5,-406 619.75,-406 619.75,-370 735.5,-370 735.5,-406"/>
<text text-anchor="middle" x="677.62" y="-382.57" font-family="Times New Roman,serif" font-size="14.00">Eastern mangrove</text>
</g>
<!-- Mangrove flora&#45;&gt;Eastern mangrove -->
<g id="edge32" class="edge">
<title>Mangrove flora&#45;&gt;Eastern mangrove</title>
<path fill="none" stroke="black" d="M467.88,-428.81C486.23,-424.17 507.18,-419.11 526.38,-415 553.01,-409.3 582.48,-403.83 608.22,-399.31"/>
<polygon fill="black" stroke="black" points="608.63,-402.8 617.88,-397.64 607.43,-395.9 608.63,-402.8"/>
</g>
<!-- Mangrove ferns -->
<g id="node31" class="node">
<title>Mangrove ferns</title>
<polygon fill="none" stroke="black" points="729.5,-352 625.75,-352 625.75,-316 729.5,-316 729.5,-352"/>
<text text-anchor="middle" x="677.62" y="-328.57" font-family="Times New Roman,serif" font-size="14.00">Mangrove ferns</text>
</g>
<!-- Mangrove flora&#45;&gt;Mangrove ferns -->
<g id="edge33" class="edge">
<title>Mangrove flora&#45;&gt;Mangrove ferns</title>
<path fill="none" stroke="black" d="M436.41,-423.74C456.78,-404.92 491.2,-376.26 526.38,-361 553.94,-349.04 586.56,-342.38 614.35,-338.67"/>
<polygon fill="black" stroke="black" points="614.54,-342.17 624.04,-337.48 613.68,-335.22 614.54,-342.17"/>
</g>
<!-- Mangrove grasses -->
<g id="node32" class="node">
<title>Mangrove grasses</title>
<polygon fill="none" stroke="black" points="736.25,-298 619,-298 619,-262 736.25,-262 736.25,-298"/>
<text text-anchor="middle" x="677.62" y="-274.57" font-family="Times New Roman,serif" font-size="14.00">Mangrove grasses</text>
</g>
<!-- Mangrove flora&#45;&gt;Mangrove grasses -->
<g id="edge34" class="edge">
<title>Mangrove flora&#45;&gt;Mangrove grasses</title>
<path fill="none" stroke="black" d="M426.88,-423.64C442.72,-393.88 478.25,-335.55 526.38,-307 550.61,-292.62 580.62,-285.53 607.44,-282.15"/>
<polygon fill="black" stroke="black" points="607.65,-285.65 617.21,-281.08 606.89,-278.69 607.65,-285.65"/>
</g>
<!-- Mangrove orchids -->
<g id="node33" class="node">
<title>Mangrove orchids</title>
<polygon fill="none" stroke="black" points="736.62,-622 618.62,-622 618.62,-586 736.62,-586 736.62,-622"/>
<text text-anchor="middle" x="677.62" y="-598.58" font-family="Times New Roman,serif" font-size="14.00">Mangrove orchids</text>
</g>
<!-- Mangrove flora&#45;&gt;Mangrove orchids -->
<g id="edge35" class="edge">
<title>Mangrove flora&#45;&gt;Mangrove orchids</title>
<path fill="none" stroke="black" d="M426.88,-460.36C442.72,-490.12 478.25,-548.45 526.38,-577 550.51,-591.32 580.38,-598.41 607.11,-601.81"/>
<polygon fill="black" stroke="black" points="606.52,-605.26 616.85,-602.88 607.29,-598.31 606.52,-605.26"/>
</g>
<!-- Mangrove palms -->
<g id="node34" class="node">
<title>Mangrove palms</title>
<polygon fill="none" stroke="black" points="732.12,-568 623.12,-568 623.12,-532 732.12,-532 732.12,-568"/>
<text text-anchor="middle" x="677.62" y="-544.58" font-family="Times New Roman,serif" font-size="14.00">Mangrove palms</text>
</g>
<!-- Mangrove flora&#45;&gt;Mangrove palms -->
<g id="edge36" class="edge">
<title>Mangrove flora&#45;&gt;Mangrove palms</title>
<path fill="none" stroke="black" d="M436.41,-460.26C456.78,-479.08 491.2,-507.74 526.38,-523 552.97,-534.54 584.26,-541.14 611.39,-544.93"/>
<polygon fill="black" stroke="black" points="610.87,-548.39 621.23,-546.19 611.76,-541.45 610.87,-548.39"/>
</g>
<!-- Mangrove shrubs -->
<g id="node35" class="node">
<title>Mangrove shrubs</title>
<polygon fill="none" stroke="black" points="1041.38,-277 927.88,-277 927.88,-241 1041.38,-241 1041.38,-277"/>
<text text-anchor="middle" x="984.62" y="-253.57" font-family="Times New Roman,serif" font-size="14.00">Mangrove shrubs</text>
</g>
<!-- Mangrove forest structure&#45;&gt;Mangrove shrubs -->
<g id="edge37" class="edge">
<title>Mangrove forest structure&#45;&gt;Mangrove shrubs</title>
<path fill="none" stroke="black" d="M758.36,-234.63C807.44,-239.94 869.66,-246.67 916.26,-251.71"/>
<polygon fill="black" stroke="black" points="915.63,-255.16 925.95,-252.76 916.38,-248.2 915.63,-255.16"/>
</g>
<!-- Mangrove vines -->
<g id="node36" class="node">
<title>Mangrove vines</title>
<polygon fill="none" stroke="black" points="1036.88,-381 932.38,-381 932.38,-345 1036.88,-345 1036.88,-381"/>
<text text-anchor="middle" x="984.62" y="-357.57" font-family="Times New Roman,serif" font-size="14.00">Mangrove vines</text>
</g>
<!-- Mangrove forest structure&#45;&gt;Mangrove vines -->
<g id="edge38" class="edge">
<title>Mangrove forest structure&#45;&gt;Mangrove vines</title>
<path fill="none" stroke="black" d="M758.48,-231.85C782.03,-235.79 807.26,-242.3 828.88,-253 848.33,-262.63 847.71,-272.72 864.88,-286 889.61,-305.15 919.12,-324.29 942.53,-338.7"/>
<polygon fill="black" stroke="black" points="940.5,-341.57 950.86,-343.79 944.15,-335.59 940.5,-341.57"/>
</g>
<!-- Crescentic dunes -->
<g id="node41" class="node">
<title>Crescentic dunes</title>
<polygon fill="none" stroke="black" points="1040.62,-198 928.62,-198 928.62,-162 1040.62,-162 1040.62,-198"/>
<text text-anchor="middle" x="984.62" y="-174.57" font-family="Times New Roman,serif" font-size="14.00">Crescentic dunes</text>
</g>
<!-- Barchan dunes&#45;&gt;Crescentic dunes -->
<g id="edge42" class="edge">
<title>Barchan dunes&#45;&gt;Crescentic dunes</title>
<path fill="none" stroke="black" d="M466.49,-180C567.83,-180 801.42,-180 916.74,-180"/>
<polygon fill="black" stroke="black" points="916.68,-183.5 926.68,-180 916.68,-176.5 916.68,-183.5"/>
</g>
<!-- Complex dunes -->
<g id="node42" class="node">
<title>Complex dunes</title>
<polygon fill="none" stroke="black" points="729.5,-90 625.75,-90 625.75,-54 729.5,-54 729.5,-90"/>
<text text-anchor="middle" x="677.62" y="-66.58" font-family="Times New Roman,serif" font-size="14.00">Complex dunes</text>
</g>
<!-- Coastal sand dunes&#45;&gt;Complex dunes -->
<g id="edge43" class="edge">
<title>Coastal sand dunes&#45;&gt;Complex dunes</title>
<path fill="none" stroke="black" d="M479.34,-109.94C494.66,-106.16 511.08,-102.27 526.38,-99 555.06,-92.86 587.03,-86.99 614.08,-82.29"/>
<polygon fill="black" stroke="black" points="614.59,-85.75 623.86,-80.61 613.41,-78.86 614.59,-85.75"/>
</g>
<!-- Dune complexes -->
<g id="node43" class="node">
<title>Dune complexes</title>
<polygon fill="none" stroke="black" points="732.12,-144 623.12,-144 623.12,-108 732.12,-108 732.12,-144"/>
<text text-anchor="middle" x="677.62" y="-120.58" font-family="Times New Roman,serif" font-size="14.00">Dune complexes</text>
</g>
<!-- Coastal sand dunes&#45;&gt;Dune complexes -->
<g id="edge44" class="edge">
<title>Coastal sand dunes&#45;&gt;Dune complexes</title>
<path fill="none" stroke="black" d="M479.43,-126C519.26,-126 571.01,-126 611.5,-126"/>
<polygon fill="black" stroke="black" points="611.36,-129.5 621.36,-126 611.36,-122.5 611.36,-129.5"/>
</g>
<!-- Corals -->
<g id="node18" class="node">
<title>Corals</title>
<polygon fill="none" stroke="black" points="1011.62,-1108 957.62,-1108 957.62,-1072 1011.62,-1072 1011.62,-1108"/>
<text text-anchor="middle" x="984.62" y="-1084.58" font-family="Times New Roman,serif" font-size="14.00">Corals</text>
</g>
<!-- Reef invertebrates&#45;&gt;Corals -->
<g id="edge19" class="edge">
<title>Reef invertebrates&#45;&gt;Corals</title>
<path fill="none" stroke="black" d="M736.35,-1090C797.88,-1090 893.5,-1090 945.98,-1090"/>
<polygon fill="black" stroke="black" points="945.91,-1093.5 955.91,-1090 945.91,-1086.5 945.91,-1093.5"/>
</g>
<!-- Crustaceans (such as crabs and shrimp) -->
<g id="node19" class="node">
<title>Crustaceans (such as crabs and shrimp)</title>
<polygon fill="none" stroke="black" points="1104.38,-1054 864.88,-1054 864.88,-1018 1104.38,-1018 1104.38,-1054"/>
<text text-anchor="middle" x="984.62" y="-1030.58" font-family="Times New Roman,serif" font-size="14.00">Crustaceans (such as crabs and shrimp)</text>
</g>
<!-- Reef invertebrates&#45;&gt;Crustaceans (such as crabs and shrimp) -->
<g id="edge20" class="edge">
<title>Reef invertebrates&#45;&gt;Crustaceans (such as crabs and shrimp)</title>
<path fill="none" stroke="black" d="M736.35,-1079.78C773.45,-1073.21 822.94,-1064.45 867.9,-1056.49"/>
<polygon fill="black" stroke="black" points="868.49,-1059.94 877.73,-1054.75 867.27,-1053.05 868.49,-1059.94"/>
</g>
<!-- Reef echinoderms -->
<g id="node20" class="node">
<title>Reef echinoderms</title>
<polygon fill="none" stroke="black" points="1043.25,-1162 926,-1162 926,-1126 1043.25,-1126 1043.25,-1162"/>
<text text-anchor="middle" x="984.62" y="-1138.58" font-family="Times New Roman,serif" font-size="14.00">Reef echinoderms</text>
</g>
<!-- Reef invertebrates&#45;&gt;Reef echinoderms -->
<g id="edge21" class="edge">
<title>Reef invertebrates&#45;&gt;Reef echinoderms</title>
<path fill="none" stroke="black" d="M736.35,-1100.22C786.98,-1109.18 860.69,-1122.24 914.46,-1131.75"/>
<polygon fill="black" stroke="black" points="913.67,-1135.17 924.13,-1133.47 914.89,-1128.28 913.67,-1135.17"/>
</g>
<!-- Climate resilience of mangroves -->
<g id="node40" class="node">
<title>Climate resilience of mangroves</title>
<polygon fill="none" stroke="black" points="1333.38,-800 1140.38,-800 1140.38,-764 1333.38,-764 1333.38,-800"/>
<text text-anchor="middle" x="1236.88" y="-776.58" font-family="Times New Roman,serif" font-size="14.00">Climate resilience of mangroves</text>
</g>
<!-- Mangrove research and monitoring&#45;&gt;Climate resilience of mangroves -->
<g id="edge50" class="edge">
<title>Mangrove research and monitoring&#45;&gt;Climate resilience of mangroves</title>
<path fill="none" stroke="black" d="M782.96,-808.42C809.64,-805.72 838.3,-803.03 864.88,-801 953.72,-794.2 1054.72,-789.2 1128.89,-786.05"/>
<polygon fill="black" stroke="black" points="1128.73,-789.56 1138.58,-785.64 1128.44,-782.56 1128.73,-789.56"/>
</g>
<!-- Mangrove monitoring -->
<g id="node48" class="node">
<title>Mangrove monitoring</title>
<polygon fill="none" stroke="black" points="1052.62,-846 916.62,-846 916.62,-810 1052.62,-810 1052.62,-846"/>
<text text-anchor="middle" x="984.62" y="-822.58" font-family="Times New Roman,serif" font-size="14.00">Mangrove monitoring</text>
</g>
<!-- Mangrove research and monitoring&#45;&gt;Mangrove monitoring -->
<g id="edge51" class="edge">
<title>Mangrove research and monitoring&#45;&gt;Mangrove monitoring</title>
<path fill="none" stroke="black" d="M783.16,-822.74C823.17,-823.79 868.08,-824.97 905.23,-825.94"/>
<polygon fill="black" stroke="black" points="904.9,-829.44 914.99,-826.2 905.08,-822.44 904.9,-829.44"/>
</g>
<!-- Mangrove water quality -->
<g id="node37" class="node">
<title>Mangrove water quality</title>
<polygon fill="none" stroke="black" points="1310.12,-873 1163.62,-873 1163.62,-837 1310.12,-837 1310.12,-873"/>
<text text-anchor="middle" x="1236.88" y="-849.58" font-family="Times New Roman,serif" font-size="14.00">Mangrove water quality</text>
</g>
<!-- Pollution control in mangrove conservation&#45;&gt;Mangrove water quality -->
<g id="edge53" class="edge">
<title>Pollution control in mangrove conservation&#45;&gt;Mangrove water quality</title>
<path fill="none" stroke="black" d="M806.12,-869.65C912.11,-866.04 1059.93,-861 1151.67,-857.87"/>
<polygon fill="black" stroke="black" points="1151.74,-861.37 1161.61,-857.53 1151.5,-854.37 1151.74,-861.37"/>
</g>
<!-- Sustainable mangrove management -->
<g id="node50" class="node">
<title>Sustainable mangrove management</title>
<polygon fill="none" stroke="black" points="1089.75,-750 879.5,-750 879.5,-714 1089.75,-714 1089.75,-750"/>
<text text-anchor="middle" x="984.62" y="-726.58" font-family="Times New Roman,serif" font-size="14.00">Sustainable mangrove management</text>
</g>
<!-- Climate change adaptation for mangroves&#45;&gt;Sustainable mangrove management -->
<g id="edge54" class="edge">
<title>Climate change adaptation for mangroves&#45;&gt;Sustainable mangrove management</title>
<path fill="none" stroke="black" d="M801.36,-752.32C823.35,-749.87 846.2,-747.32 867.98,-744.89"/>
<polygon fill="black" stroke="black" points="868.21,-748.39 877.76,-743.8 867.43,-741.43 868.21,-748.39"/>
</g>
<!-- Climate change adaptation strategies for mangroves&#45;&gt;Sustainable mangrove management -->
<g id="edge55" class="edge">
<title>Climate change adaptation strategies for mangroves&#45;&gt;Sustainable mangrove management</title>
<path fill="none" stroke="black" d="M789.7,-676.45C802.95,-679.09 816.25,-681.96 828.88,-685 858.4,-692.11 890.59,-701.6 917.93,-710.19"/>
<polygon fill="black" stroke="black" points="916.51,-713.41 927.1,-713.1 918.63,-706.74 916.51,-713.41"/>
</g>
<!-- Saltwater mangroves&#45;&gt;Mangrove shrubs -->
<g id="edge39" class="edge">
<title>Saltwater mangroves&#45;&gt;Mangrove shrubs</title>
<path fill="none" stroke="black" d="M743.63,-443.44C772.33,-440.98 804.91,-433.62 828.88,-415 859.34,-391.33 839.68,-365.22 864.88,-336 883.81,-314.04 910.53,-295.96 933.83,-282.85"/>
<polygon fill="black" stroke="black" points="935.47,-285.94 942.58,-278.08 932.13,-279.79 935.47,-285.94"/>
</g>
<!-- Saltwater mangroves&#45;&gt;Mangrove vines -->
<g id="edge41" class="edge">
<title>Saltwater mangroves&#45;&gt;Mangrove vines</title>
<path fill="none" stroke="black" d="M743.78,-432.43C770.36,-427.97 801.28,-422.08 828.88,-415 860.77,-406.82 895.58,-395.36 924.09,-385.28"/>
<polygon fill="black" stroke="black" points="925.03,-388.66 933.27,-382 922.67,-382.07 925.03,-388.66"/>
</g>
<!-- Mangrove trees -->
<g id="node39" class="node">
<title>Mangrove trees</title>
<polygon fill="none" stroke="black" points="1035.75,-460 933.5,-460 933.5,-424 1035.75,-424 1035.75,-460"/>
<text text-anchor="middle" x="984.62" y="-436.57" font-family="Times New Roman,serif" font-size="14.00">Mangrove trees</text>
</g>
<!-- Saltwater mangroves&#45;&gt;Mangrove trees -->
<g id="edge40" class="edge">
<title>Saltwater mangroves&#45;&gt;Mangrove trees</title>
<path fill="none" stroke="black" d="M743.68,-442C796.38,-442 870.12,-442 921.9,-442"/>
<polygon fill="black" stroke="black" points="921.74,-445.5 931.74,-442 921.74,-438.5 921.74,-445.5"/>
</g>
<!-- Buttonwood mangroves -->
<g id="node38" class="node">
<title>Buttonwood mangroves</title>
<polygon fill="none" stroke="black" points="1312,-433 1161.75,-433 1161.75,-397 1312,-397 1312,-433"/>
<text text-anchor="middle" x="1236.88" y="-409.57" font-family="Times New Roman,serif" font-size="14.00">Buttonwood mangroves</text>
</g>
<!-- Mangrove trees&#45;&gt;Buttonwood mangroves -->
<g id="edge58" class="edge">
<title>Mangrove trees&#45;&gt;Buttonwood mangroves</title>
<path fill="none" stroke="black" d="M1035.97,-436.57C1068.7,-433.04 1112.23,-428.34 1150.3,-424.23"/>
<polygon fill="black" stroke="black" points="1150.33,-427.75 1159.9,-423.2 1149.58,-420.79 1150.33,-427.75"/>
</g>
<!-- Red mangrove -->
<g id="node51" class="node">
<title>Red mangrove</title>
<polygon fill="none" stroke="black" points="1285.75,-487 1188,-487 1188,-451 1285.75,-451 1285.75,-487"/>
<text text-anchor="middle" x="1236.88" y="-463.57" font-family="Times New Roman,serif" font-size="14.00">Red mangrove</text>
</g>
<!-- Mangrove trees&#45;&gt;Red mangrove -->
<g id="edge59" class="edge">
<title>Mangrove trees&#45;&gt;Red mangrove</title>
<path fill="none" stroke="black" d="M1035.97,-447.43C1076.5,-451.8 1133.56,-457.96 1176.35,-462.58"/>
<polygon fill="black" stroke="black" points="1175.92,-466.05 1186.23,-463.64 1176.67,-459.09 1175.92,-466.05"/>
</g>
<!-- Dune complexes&#45;&gt;Crescentic dunes -->
<g id="edge49" class="edge">
<title>Dune complexes&#45;&gt;Crescentic dunes</title>
<path fill="none" stroke="black" d="M732.45,-135.53C783.97,-144.65 861.81,-158.43 917.17,-168.23"/>
<polygon fill="black" stroke="black" points="916.33,-171.64 926.79,-169.94 917.55,-164.75 916.33,-171.64"/>
</g>
<!-- Linear dunes -->
<g id="node44" class="node">
<title>Linear dunes</title>
<polygon fill="none" stroke="black" points="1028.25,-90 941,-90 941,-54 1028.25,-54 1028.25,-90"/>
<text text-anchor="middle" x="984.62" y="-66.58" font-family="Times New Roman,serif" font-size="14.00">Linear dunes</text>
</g>
<!-- Dune complexes&#45;&gt;Linear dunes -->
<g id="edge46" class="edge">
<title>Dune complexes&#45;&gt;Linear dunes</title>
<path fill="none" stroke="black" d="M732.45,-116.47C787.97,-106.64 874.06,-91.4 929.64,-81.56"/>
<polygon fill="black" stroke="black" points="929.94,-85.06 939.18,-79.87 928.72,-78.17 929.94,-85.06"/>
</g>
<!-- Parabolic dunes -->
<g id="node46" class="node">
<title>Parabolic dunes</title>
<polygon fill="none" stroke="black" points="1037.25,-36 932,-36 932,0 1037.25,0 1037.25,-36"/>
<text text-anchor="middle" x="984.62" y="-12.57" font-family="Times New Roman,serif" font-size="14.00">Parabolic dunes</text>
</g>
<!-- Dune complexes&#45;&gt;Parabolic dunes -->
<g id="edge47" class="edge">
<title>Dune complexes&#45;&gt;Parabolic dunes</title>
<path fill="none" stroke="black" d="M732.47,-126.45C762.94,-124.35 800.5,-117.6 828.88,-99 853,-83.19 841.12,-61.36 864.88,-45 881.18,-33.77 901.44,-27.14 920.58,-23.26"/>
<polygon fill="black" stroke="black" points="920.97,-26.74 930.2,-21.53 919.74,-19.85 920.97,-26.74"/>
</g>
<!-- Transverse dunes -->
<g id="node47" class="node">
<title>Transverse dunes</title>
<polygon fill="none" stroke="black" points="1041.75,-144 927.5,-144 927.5,-108 1041.75,-108 1041.75,-144"/>
<text text-anchor="middle" x="984.62" y="-120.58" font-family="Times New Roman,serif" font-size="14.00">Transverse dunes</text>
</g>
<!-- Dune complexes&#45;&gt;Transverse dunes -->
<g id="edge48" class="edge">
<title>Dune complexes&#45;&gt;Transverse dunes</title>
<path fill="none" stroke="black" d="M732.45,-126C783.54,-126 860.53,-126 915.79,-126"/>
<polygon fill="black" stroke="black" points="915.73,-129.5 925.73,-126 915.73,-122.5 915.73,-129.5"/>
</g>
<!-- Longitudinal dunes -->
<g id="node45" class="node">
<title>Longitudinal dunes</title>
<polygon fill="none" stroke="black" points="1297.75,-90 1176,-90 1176,-54 1297.75,-54 1297.75,-90"/>
<text text-anchor="middle" x="1236.88" y="-66.58" font-family="Times New Roman,serif" font-size="14.00">Longitudinal dunes</text>
</g>
<!-- Linear dunes&#45;&gt;Longitudinal dunes -->
<g id="edge45" class="edge">
<title>Linear dunes&#45;&gt;Longitudinal dunes</title>
<path fill="none" stroke="black" d="M1028.64,-72C1065.85,-72 1120.39,-72 1164.18,-72"/>
<polygon fill="black" stroke="black" points="1164.12,-75.5 1174.12,-72 1164.12,-68.5 1164.12,-75.5"/>
</g>
<!-- Mangrove monitoring&#45;&gt;Mangrove water quality -->
<g id="edge52" class="edge">
<title>Mangrove monitoring&#45;&gt;Mangrove water quality</title>
<path fill="none" stroke="black" d="M1053.02,-835.27C1083.58,-838.57 1120.02,-842.5 1152.31,-845.98"/>
<polygon fill="black" stroke="black" points="1151.71,-849.44 1162.03,-847.03 1152.47,-842.48 1151.71,-849.44"/>
</g>
<!-- Mangrove restoration -->
<g id="node49" class="node">
<title>Mangrove restoration</title>
<polygon fill="none" stroke="black" points="1304.5,-746 1169.25,-746 1169.25,-710 1304.5,-710 1304.5,-746"/>
<text text-anchor="middle" x="1236.88" y="-722.58" font-family="Times New Roman,serif" font-size="14.00">Mangrove restoration</text>
</g>
<!-- Sustainable mangrove management&#45;&gt;Climate resilience of mangroves -->
<g id="edge56" class="edge">
<title>Sustainable mangrove management&#45;&gt;Climate resilience of mangroves</title>
<path fill="none" stroke="black" d="M1078.1,-750.48C1095.74,-754 1114.31,-757.71 1132.27,-761.3"/>
<polygon fill="black" stroke="black" points="1131.39,-764.69 1141.88,-763.22 1132.76,-757.83 1131.39,-764.69"/>
</g>
<!-- Sustainable mangrove management&#45;&gt;Mangrove restoration -->
<g id="edge57" class="edge">
<title>Sustainable mangrove management&#45;&gt;Mangrove restoration</title>
<path fill="none" stroke="black" d="M1089.94,-730.33C1112.56,-729.97 1136.12,-729.59 1157.54,-729.25"/>
<polygon fill="black" stroke="black" points="1157.41,-732.75 1167.35,-729.1 1157.3,-725.76 1157.41,-732.75"/>
</g>
<!-- metadata_node -->
<g id="node52" class="node">
<title>metadata_node</title>
<text text-anchor="start" x="24" y="-547.08" font-family="Times New Roman,serif" font-size="14.00">Concepts: 51</text>
<text text-anchor="start" x="24" y="-531.33" font-family="Times New Roman,serif" font-size="14.00"> Subsumptions: 59</text>
<text text-anchor="start" x="24" y="-515.58" font-family="Times New Roman,serif" font-size="14.00"> Exploration Depth: 3</text>
<text text-anchor="start" x="24" y="-499.82" font-family="Times New Roman,serif" font-size="14.00"> Frequency Threshold: 10</text>
<text text-anchor="start" x="24" y="-484.07" font-family="Times New Roman,serif" font-size="14.00"> Chosen Model: gpt&#45;4&#45;0613</text>
</g>
</g>
</svg>
