<?xml version="1.0" encoding="UTF-8" standalone="no"?>
<!DOCTYPE svg PUBLIC "-//W3C//DTD SVG 1.1//EN"
 "http://www.w3.org/Graphics/SVG/1.1/DTD/svg11.dtd">
<!-- Generated by graphviz version 10.0.1 (20240210.2158)
 -->
<!-- Pages: 1 -->
<svg width="627pt" height="206pt"
 viewBox="0.00 0.00 627.25 206.00" xmlns="http://www.w3.org/2000/svg" xmlns:xlink="http://www.w3.org/1999/xlink">
<g id="graph0" class="graph" transform="scale(1 1) rotate(0) translate(4 202)">
<polygon fill="white" stroke="none" points="-4,4 -4,-202 623.25,-202 623.25,4 -4,4"/>
<g id="clust1" class="cluster">
<title>cluster_metadata</title>
<polygon fill="none" stroke="black" points="8,-100 8,-188 177.25,-188 177.25,-100 8,-100"/>
</g>
<!-- Brazilian Water Resources -->
<g id="node1" class="node">
<title>Brazilian Water Resources</title>
<polygon fill="none" stroke="black" points="174.5,-90 10.75,-90 10.75,-54 174.5,-54 174.5,-90"/>
<text text-anchor="middle" x="92.62" y="-66.58" font-family="Times New Roman,serif" font-size="14.00">Brazilian Water Resources</text>
</g>
<!-- Lakes -->
<g id="node2" class="node">
<title>Lakes</title>
<polygon fill="none" stroke="black" points="275.5,-144 221.5,-144 221.5,-108 275.5,-108 275.5,-144"/>
<text text-anchor="middle" x="248.5" y="-120.58" font-family="Times New Roman,serif" font-size="14.00">Lakes</text>
</g>
<!-- Brazilian Water Resources&#45;&gt;Lakes -->
<g id="edge1" class="edge">
<title>Brazilian Water Resources&#45;&gt;Lakes</title>
<path fill="none" stroke="black" d="M160.5,-90.39C166.2,-92.2 171.84,-94.08 177.25,-96 188.31,-99.93 200.12,-104.73 210.83,-109.33"/>
<polygon fill="black" stroke="black" points="209.17,-112.42 219.73,-113.21 211.97,-106 209.17,-112.42"/>
</g>
<!-- Reservoirs -->
<g id="node3" class="node">
<title>Reservoirs</title>
<polygon fill="none" stroke="black" points="286.5,-90 210.5,-90 210.5,-54 286.5,-54 286.5,-90"/>
<text text-anchor="middle" x="248.5" y="-66.58" font-family="Times New Roman,serif" font-size="14.00">Reservoirs</text>
</g>
<!-- Brazilian Water Resources&#45;&gt;Reservoirs -->
<g id="edge2" class="edge">
<title>Brazilian Water Resources&#45;&gt;Reservoirs</title>
<path fill="none" stroke="black" d="M174.62,-72C182.89,-72 191.1,-72 198.86,-72"/>
<polygon fill="black" stroke="black" points="198.73,-75.5 208.73,-72 198.73,-68.5 198.73,-75.5"/>
</g>
<!-- Estuaries -->
<g id="node4" class="node">
<title>Estuaries</title>
<polygon fill="none" stroke="black" points="281.62,-36 215.38,-36 215.38,0 281.62,0 281.62,-36"/>
<text text-anchor="middle" x="248.5" y="-12.57" font-family="Times New Roman,serif" font-size="14.00">Estuaries</text>
</g>
<!-- Brazilian Water Resources&#45;&gt;Estuaries -->
<g id="edge3" class="edge">
<title>Brazilian Water Resources&#45;&gt;Estuaries</title>
<path fill="none" stroke="black" d="M146.15,-53.57C165.04,-46.94 186.12,-39.54 204.14,-33.22"/>
<polygon fill="black" stroke="black" points="205.22,-36.55 213.49,-29.93 202.9,-29.94 205.22,-36.55"/>
</g>
<!-- Natural lakes -->
<g id="node5" class="node">
<title>Natural lakes</title>
<polygon fill="none" stroke="black" points="442,-198 354.75,-198 354.75,-162 442,-162 442,-198"/>
<text text-anchor="middle" x="398.38" y="-174.57" font-family="Times New Roman,serif" font-size="14.00">Natural lakes</text>
</g>
<!-- Lakes&#45;&gt;Natural lakes -->
<g id="edge4" class="edge">
<title>Lakes&#45;&gt;Natural lakes</title>
<path fill="none" stroke="black" d="M275.84,-135.8C289.71,-140.95 307.01,-147.34 322.5,-153 329.4,-155.52 336.65,-158.15 343.83,-160.75"/>
<polygon fill="black" stroke="black" points="342.57,-164.02 353.17,-164.13 344.95,-157.44 342.57,-164.02"/>
</g>
<!-- Man&#45;made lakes -->
<g id="node6" class="node">
<title>Man&#45;made lakes</title>
<polygon fill="none" stroke="black" points="451.75,-144 345,-144 345,-108 451.75,-108 451.75,-144"/>
<text text-anchor="middle" x="398.38" y="-120.58" font-family="Times New Roman,serif" font-size="14.00">Man&#45;made lakes</text>
</g>
<!-- Lakes&#45;&gt;Man&#45;made lakes -->
<g id="edge5" class="edge">
<title>Lakes&#45;&gt;Man&#45;made lakes</title>
<path fill="none" stroke="black" d="M275.94,-126C291.91,-126 313.02,-126 333.15,-126"/>
<polygon fill="black" stroke="black" points="333.01,-129.5 343.01,-126 333.01,-122.5 333.01,-129.5"/>
</g>
<!-- Reservoirs&#45;&gt;Man&#45;made lakes -->
<g id="edge6" class="edge">
<title>Reservoirs&#45;&gt;Man&#45;made lakes</title>
<path fill="none" stroke="black" d="M286.99,-85.93C298.39,-90.15 310.95,-94.78 322.5,-99 326.81,-100.57 331.26,-102.19 335.74,-103.82"/>
<polygon fill="black" stroke="black" points="334.19,-106.98 344.78,-107.09 336.57,-100.4 334.19,-106.98"/>
</g>
<!-- Flood control reservoirs -->
<g id="node7" class="node">
<title>Flood control reservoirs</title>
<polygon fill="none" stroke="black" points="474.25,-90 322.5,-90 322.5,-54 474.25,-54 474.25,-90"/>
<text text-anchor="middle" x="398.38" y="-66.58" font-family="Times New Roman,serif" font-size="14.00">Flood control reservoirs</text>
</g>
<!-- Reservoirs&#45;&gt;Flood control reservoirs -->
<g id="edge7" class="edge">
<title>Reservoirs&#45;&gt;Flood control reservoirs</title>
<path fill="none" stroke="black" d="M286.82,-72C294.29,-72 302.42,-72 310.78,-72"/>
<polygon fill="black" stroke="black" points="310.77,-75.5 320.77,-72 310.77,-68.5 310.77,-75.5"/>
</g>
<!-- Recreational reservoirs -->
<g id="node8" class="node">
<title>Recreational reservoirs</title>
<polygon fill="none" stroke="black" points="470.12,-36 326.62,-36 326.62,0 470.12,0 470.12,-36"/>
<text text-anchor="middle" x="398.38" y="-12.57" font-family="Times New Roman,serif" font-size="14.00">Recreational reservoirs</text>
</g>
<!-- Reservoirs&#45;&gt;Recreational reservoirs -->
<g id="edge8" class="edge">
<title>Reservoirs&#45;&gt;Recreational reservoirs</title>
<path fill="none" stroke="black" d="M286.99,-58.07C298.39,-53.85 310.95,-49.22 322.5,-45 326.81,-43.43 331.26,-41.81 335.74,-40.18"/>
<polygon fill="black" stroke="black" points="336.57,-43.6 344.78,-36.91 334.19,-37.02 336.57,-43.6"/>
</g>
<!-- Freshwater lakes -->
<g id="node9" class="node">
<title>Freshwater lakes</title>
<polygon fill="none" stroke="black" points="619.25,-198 510.25,-198 510.25,-162 619.25,-162 619.25,-198"/>
<text text-anchor="middle" x="564.75" y="-174.57" font-family="Times New Roman,serif" font-size="14.00">Freshwater lakes</text>
</g>
<!-- Natural lakes&#45;&gt;Freshwater lakes -->
<g id="edge9" class="edge">
<title>Natural lakes&#45;&gt;Freshwater lakes</title>
<path fill="none" stroke="black" d="M442.13,-180C459.39,-180 479.68,-180 498.69,-180"/>
<polygon fill="black" stroke="black" points="498.5,-183.5 508.5,-180 498.5,-176.5 498.5,-183.5"/>
</g>
<!-- Recreation -->
<g id="node10" class="node">
<title>Recreation</title>
<polygon fill="none" stroke="black" points="602.75,-90 526.75,-90 526.75,-54 602.75,-54 602.75,-90"/>
<text text-anchor="middle" x="564.75" y="-66.58" font-family="Times New Roman,serif" font-size="14.00">Recreation</text>
</g>
<!-- Man&#45;made lakes&#45;&gt;Recreation -->
<g id="edge10" class="edge">
<title>Man&#45;made lakes&#45;&gt;Recreation</title>
<path fill="none" stroke="black" d="M451.84,-108.77C472.29,-102.05 495.58,-94.39 515.6,-87.82"/>
<polygon fill="black" stroke="black" points="516.5,-91.21 524.91,-84.76 514.32,-84.56 516.5,-91.21"/>
</g>
<!-- Recreational reservoirs&#45;&gt;Recreation -->
<g id="edge11" class="edge">
<title>Recreational reservoirs&#45;&gt;Recreation</title>
<path fill="none" stroke="black" d="M455.48,-36.43C475.08,-42.87 496.87,-50.03 515.75,-56.23"/>
<polygon fill="black" stroke="black" points="514.45,-59.49 525.04,-59.28 516.63,-52.84 514.45,-59.49"/>
</g>
<!-- metadata_node -->
<g id="node11" class="node">
<title>metadata_node</title>
<text text-anchor="start" x="24" y="-162.2" font-family="Times New Roman,serif" font-size="14.00">Concepts: 10</text>
<text text-anchor="start" x="24" y="-146.45" font-family="Times New Roman,serif" font-size="14.00"> Subsumptions: 11</text>
<text text-anchor="start" x="24" y="-130.7" font-family="Times New Roman,serif" font-size="14.00"> Exploration Depth: 2</text>
<text text-anchor="start" x="24" y="-114.95" font-family="Times New Roman,serif" font-size="14.00"> Frequency Threshold: 5</text>
</g>
</g>
</svg>
