<?xml version="1.0" encoding="UTF-8" standalone="no"?>
<!DOCTYPE svg PUBLIC "-//W3C//DTD SVG 1.1//EN"
 "http://www.w3.org/Graphics/SVG/1.1/DTD/svg11.dtd">
<!-- Generated by graphviz version 10.0.1 (20240210.2158)
 -->
<!-- Pages: 1 -->
<svg width="743pt" height="314pt"
 viewBox="0.00 0.00 742.51 314.00" xmlns="http://www.w3.org/2000/svg" xmlns:xlink="http://www.w3.org/1999/xlink">
<g id="graph0" class="graph" transform="scale(1 1) rotate(0) translate(4 310)">
<polygon fill="white" stroke="none" points="-4,4 -4,-310 738.51,-310 738.51,4 -4,4"/>
<g id="clust1" class="cluster">
<title>cluster_metadata</title>
<polygon fill="none" stroke="black" points="8,-127 8,-215 184,-215 184,-127 8,-127"/>
</g>
<!-- Brazilian Water Resources -->
<g id="node1" class="node">
<title>Brazilian Water Resources</title>
<polygon fill="none" stroke="black" points="177.88,-117 14.12,-117 14.12,-81 177.88,-81 177.88,-117"/>
<text text-anchor="middle" x="96" y="-93.58" font-family="Times New Roman,serif" font-size="14.00">Brazilian Water Resources</text>
</g>
<!-- Lakes -->
<g id="node2" class="node">
<title>Lakes</title>
<polygon fill="none" stroke="black" points="278.88,-144 224.88,-144 224.88,-108 278.88,-108 278.88,-144"/>
<text text-anchor="middle" x="251.88" y="-120.58" font-family="Times New Roman,serif" font-size="14.00">Lakes</text>
</g>
<!-- Brazilian Water Resources&#45;&gt;Lakes -->
<g id="edge1" class="edge">
<title>Brazilian Water Resources&#45;&gt;Lakes</title>
<path fill="none" stroke="black" d="M177.99,-113.21C190.33,-115.38 202.53,-117.52 213.31,-119.41"/>
<polygon fill="black" stroke="black" points="212.45,-122.81 222.9,-121.09 213.66,-115.92 212.45,-122.81"/>
</g>
<!-- Reservoirs -->
<g id="node3" class="node">
<title>Reservoirs</title>
<polygon fill="none" stroke="black" points="289.88,-90 213.88,-90 213.88,-54 289.88,-54 289.88,-90"/>
<text text-anchor="middle" x="251.88" y="-66.58" font-family="Times New Roman,serif" font-size="14.00">Reservoirs</text>
</g>
<!-- Brazilian Water Resources&#45;&gt;Reservoirs -->
<g id="edge2" class="edge">
<title>Brazilian Water Resources&#45;&gt;Reservoirs</title>
<path fill="none" stroke="black" d="M177.99,-84.79C186.36,-83.32 194.66,-81.86 202.5,-80.49"/>
<polygon fill="black" stroke="black" points="202.88,-83.97 212.13,-78.8 201.67,-77.08 202.88,-83.97"/>
</g>
<!-- Man&#45;made lakes -->
<g id="node4" class="node">
<title>Man&#45;made lakes</title>
<polygon fill="none" stroke="black" points="455.12,-144 348.38,-144 348.38,-108 455.12,-108 455.12,-144"/>
<text text-anchor="middle" x="401.75" y="-120.58" font-family="Times New Roman,serif" font-size="14.00">Man&#45;made lakes</text>
</g>
<!-- Lakes&#45;&gt;Man&#45;made lakes -->
<g id="edge3" class="edge">
<title>Lakes&#45;&gt;Man&#45;made lakes</title>
<path fill="none" stroke="black" d="M279.31,-126C295.29,-126 316.4,-126 336.53,-126"/>
<polygon fill="black" stroke="black" points="336.38,-129.5 346.38,-126 336.38,-122.5 336.38,-129.5"/>
</g>
<!-- Natural lakes -->
<g id="node5" class="node">
<title>Natural lakes</title>
<polygon fill="none" stroke="black" points="445.38,-252 358.12,-252 358.12,-216 445.38,-216 445.38,-252"/>
<text text-anchor="middle" x="401.75" y="-228.57" font-family="Times New Roman,serif" font-size="14.00">Natural lakes</text>
</g>
<!-- Lakes&#45;&gt;Natural lakes -->
<g id="edge4" class="edge">
<title>Lakes&#45;&gt;Natural lakes</title>
<path fill="none" stroke="black" d="M277.96,-144.32C302.28,-162.09 339.38,-189.18 366.43,-208.93"/>
<polygon fill="black" stroke="black" points="364.18,-211.63 374.32,-214.7 368.31,-205.97 364.18,-211.63"/>
</g>
<!-- Reservoirs&#45;&gt;Man&#45;made lakes -->
<g id="edge5" class="edge">
<title>Reservoirs&#45;&gt;Man&#45;made lakes</title>
<path fill="none" stroke="black" d="M290.37,-85.93C301.76,-90.15 314.32,-94.78 325.88,-99 330.18,-100.57 334.63,-102.19 339.11,-103.82"/>
<polygon fill="black" stroke="black" points="337.56,-106.98 348.15,-107.09 339.95,-100.4 337.56,-106.98"/>
</g>
<!-- Flood control reservoirs -->
<g id="node6" class="node">
<title>Flood control reservoirs</title>
<polygon fill="none" stroke="black" points="477.62,-90 325.88,-90 325.88,-54 477.62,-54 477.62,-90"/>
<text text-anchor="middle" x="401.75" y="-66.58" font-family="Times New Roman,serif" font-size="14.00">Flood control reservoirs</text>
</g>
<!-- Reservoirs&#45;&gt;Flood control reservoirs -->
<g id="edge6" class="edge">
<title>Reservoirs&#45;&gt;Flood control reservoirs</title>
<path fill="none" stroke="black" d="M290.19,-72C297.66,-72 305.8,-72 314.16,-72"/>
<polygon fill="black" stroke="black" points="314.14,-75.5 324.14,-72 314.14,-68.5 314.14,-75.5"/>
</g>
<!-- Recreational reservoirs -->
<g id="node7" class="node">
<title>Recreational reservoirs</title>
<polygon fill="none" stroke="black" points="473.5,-36 330,-36 330,0 473.5,0 473.5,-36"/>
<text text-anchor="middle" x="401.75" y="-12.57" font-family="Times New Roman,serif" font-size="14.00">Recreational reservoirs</text>
</g>
<!-- Reservoirs&#45;&gt;Recreational reservoirs -->
<g id="edge7" class="edge">
<title>Reservoirs&#45;&gt;Recreational reservoirs</title>
<path fill="none" stroke="black" d="M290.37,-58.07C301.76,-53.85 314.32,-49.22 325.88,-45 330.18,-43.43 334.63,-41.81 339.11,-40.18"/>
<polygon fill="black" stroke="black" points="339.95,-43.6 348.15,-36.91 337.56,-37.02 339.95,-43.6"/>
</g>
<!-- Recreational lakes -->
<g id="node8" class="node">
<title>Recreational lakes</title>
<polygon fill="none" stroke="black" points="682.32,-198 565.82,-198 565.82,-162 682.32,-162 682.32,-198"/>
<text text-anchor="middle" x="624.07" y="-174.57" font-family="Times New Roman,serif" font-size="14.00">Recreational lakes</text>
</g>
<!-- Man&#45;made lakes&#45;&gt;Recreational lakes -->
<g id="edge8" class="edge">
<title>Man&#45;made lakes&#45;&gt;Recreational lakes</title>
<path fill="none" stroke="black" d="M455.52,-138.93C485.24,-146.22 522.7,-155.4 554.65,-163.23"/>
<polygon fill="black" stroke="black" points="553.69,-166.6 564.24,-165.58 555.36,-159.8 553.69,-166.6"/>
</g>
<!-- Hydroelectric reservoirs -->
<g id="node9" class="node">
<title>Hydroelectric reservoirs</title>
<polygon fill="none" stroke="black" points="699.19,-144 548.94,-144 548.94,-108 699.19,-108 699.19,-144"/>
<text text-anchor="middle" x="624.07" y="-120.58" font-family="Times New Roman,serif" font-size="14.00">Hydroelectric reservoirs</text>
</g>
<!-- Man&#45;made lakes&#45;&gt;Hydroelectric reservoirs -->
<g id="edge9" class="edge">
<title>Man&#45;made lakes&#45;&gt;Hydroelectric reservoirs</title>
<path fill="none" stroke="black" d="M455.52,-126C480.03,-126 509.78,-126 537.39,-126"/>
<polygon fill="black" stroke="black" points="537.14,-129.5 547.14,-126 537.14,-122.5 537.14,-129.5"/>
</g>
<!-- Mesotrophic lakes -->
<g id="node10" class="node">
<title>Mesotrophic lakes</title>
<polygon fill="none" stroke="black" points="683.44,-306 564.69,-306 564.69,-270 683.44,-270 683.44,-306"/>
<text text-anchor="middle" x="624.07" y="-282.57" font-family="Times New Roman,serif" font-size="14.00">Mesotrophic lakes</text>
</g>
<!-- Natural lakes&#45;&gt;Mesotrophic lakes -->
<g id="edge10" class="edge">
<title>Natural lakes&#45;&gt;Mesotrophic lakes</title>
<path fill="none" stroke="black" d="M445.75,-244.54C476.39,-252.05 518.25,-262.31 553.6,-270.97"/>
<polygon fill="black" stroke="black" points="552.32,-274.26 562.87,-273.24 553.99,-267.46 552.32,-274.26"/>
</g>
<!-- Oligotrophic lakes -->
<g id="node11" class="node">
<title>Oligotrophic lakes</title>
<polygon fill="none" stroke="black" points="683.07,-252 565.07,-252 565.07,-216 683.07,-216 683.07,-252"/>
<text text-anchor="middle" x="624.07" y="-228.57" font-family="Times New Roman,serif" font-size="14.00">Oligotrophic lakes</text>
</g>
<!-- Natural lakes&#45;&gt;Oligotrophic lakes -->
<g id="edge11" class="edge">
<title>Natural lakes&#45;&gt;Oligotrophic lakes</title>
<path fill="none" stroke="black" d="M445.75,-234C476.38,-234 518.19,-234 553.53,-234"/>
<polygon fill="black" stroke="black" points="553.24,-237.5 563.24,-234 553.24,-230.5 553.24,-237.5"/>
</g>
<!-- Sediment trapping -->
<g id="node12" class="node">
<title>Sediment trapping</title>
<polygon fill="none" stroke="black" points="682.69,-90 565.44,-90 565.44,-54 682.69,-54 682.69,-90"/>
<text text-anchor="middle" x="624.07" y="-66.58" font-family="Times New Roman,serif" font-size="14.00">Sediment trapping</text>
</g>
<!-- Flood control reservoirs&#45;&gt;Sediment trapping -->
<g id="edge12" class="edge">
<title>Flood control reservoirs&#45;&gt;Sediment trapping</title>
<path fill="none" stroke="black" d="M477.96,-72C502.6,-72 529.85,-72 554.01,-72"/>
<polygon fill="black" stroke="black" points="553.73,-75.5 563.73,-72 553.73,-68.5 553.73,-75.5"/>
</g>
<!-- Flood mitigation reservoirs -->
<g id="node13" class="node">
<title>Flood mitigation reservoirs</title>
<ellipse fill="none" stroke="black" cx="624.07" cy="-18" rx="110.44" ry="18"/>
<text text-anchor="middle" x="624.07" y="-12.57" font-family="Times New Roman,serif" font-size="14.00">Flood mitigation reservoirs</text>
</g>
<!-- Flood control reservoirs&#45;&gt;Flood mitigation reservoirs -->
<g id="edge13" class="edge">
<title>Flood control reservoirs&#45;&gt;Flood mitigation reservoirs</title>
<path fill="none" stroke="blue" d="M488.88,-50.89C509.09,-45.94 530.44,-40.7 550.01,-35.91"/>
<polygon fill="blue" stroke="blue" points="488.3,-47.43 479.43,-53.21 489.97,-54.23 488.3,-47.43"/>
<polygon fill="blue" stroke="blue" points="550.65,-39.35 559.53,-33.57 548.98,-32.55 550.65,-39.35"/>
</g>
<!-- metadata_node -->
<g id="node14" class="node">
<title>metadata_node</title>
<text text-anchor="start" x="24" y="-189.2" font-family="Times New Roman,serif" font-size="14.00">Concepts: 12</text>
<text text-anchor="start" x="24" y="-173.45" font-family="Times New Roman,serif" font-size="14.00"> Subsumptions: 12</text>
<text text-anchor="start" x="24" y="-157.7" font-family="Times New Roman,serif" font-size="14.00"> Exploration Depth: 3</text>
<text text-anchor="start" x="24" y="-141.95" font-family="Times New Roman,serif" font-size="14.00"> Frequency Threshold: 10</text>
</g>
</g>
</svg>
