<?xml version="1.0" encoding="UTF-8" standalone="no"?>
<!DOCTYPE svg PUBLIC "-//W3C//DTD SVG 1.1//EN"
 "http://www.w3.org/Graphics/SVG/1.1/DTD/svg11.dtd">
<!-- Generated by graphviz version 10.0.1 (20240210.2158)
 -->
<!-- Pages: 1 -->
<svg width="477pt" height="177pt"
 viewBox="0.00 0.00 477.38 177.00" xmlns="http://www.w3.org/2000/svg" xmlns:xlink="http://www.w3.org/1999/xlink">
<g id="graph0" class="graph" transform="scale(1 1) rotate(0) translate(4 173)">
<polygon fill="white" stroke="none" points="-4,4 -4,-173 473.38,-173 473.38,4 -4,4"/>
<g id="clust1" class="cluster">
<title>cluster_metadata</title>
<polygon fill="none" stroke="black" points="8,-73 8,-161 184,-161 184,-73 8,-73"/>
</g>
<!-- Brazilian Water Resources -->
<g id="node1" class="node">
<title>Brazilian Water Resources</title>
<polygon fill="none" stroke="black" points="177.88,-63 14.12,-63 14.12,-27 177.88,-27 177.88,-63"/>
<text text-anchor="middle" x="96" y="-39.58" font-family="Times New Roman,serif" font-size="14.00">Brazilian Water Resources</text>
</g>
<!-- Lakes -->
<g id="node2" class="node">
<title>Lakes</title>
<polygon fill="none" stroke="black" points="278.88,-90 224.88,-90 224.88,-54 278.88,-54 278.88,-90"/>
<text text-anchor="middle" x="251.88" y="-66.58" font-family="Times New Roman,serif" font-size="14.00">Lakes</text>
</g>
<!-- Brazilian Water Resources&#45;&gt;Lakes -->
<g id="edge1" class="edge">
<title>Brazilian Water Resources&#45;&gt;Lakes</title>
<path fill="none" stroke="black" d="M177.99,-59.21C190.33,-61.38 202.53,-63.52 213.31,-65.41"/>
<polygon fill="black" stroke="black" points="212.45,-68.81 222.9,-67.09 213.66,-61.92 212.45,-68.81"/>
</g>
<!-- Reservoirs -->
<g id="node3" class="node">
<title>Reservoirs</title>
<polygon fill="none" stroke="black" points="289.88,-36 213.88,-36 213.88,0 289.88,0 289.88,-36"/>
<text text-anchor="middle" x="251.88" y="-12.57" font-family="Times New Roman,serif" font-size="14.00">Reservoirs</text>
</g>
<!-- Brazilian Water Resources&#45;&gt;Reservoirs -->
<g id="edge2" class="edge">
<title>Brazilian Water Resources&#45;&gt;Reservoirs</title>
<path fill="none" stroke="black" d="M177.99,-30.79C186.36,-29.32 194.66,-27.86 202.5,-26.49"/>
<polygon fill="black" stroke="black" points="202.88,-29.97 212.13,-24.8 201.67,-23.08 202.88,-29.97"/>
</g>
<!-- Natural lakes -->
<g id="node4" class="node">
<title>Natural lakes</title>
<polygon fill="none" stroke="black" points="441.25,-90 354,-90 354,-54 441.25,-54 441.25,-90"/>
<text text-anchor="middle" x="397.62" y="-66.58" font-family="Times New Roman,serif" font-size="14.00">Natural lakes</text>
</g>
<!-- Lakes&#45;&gt;Natural lakes -->
<g id="edge3" class="edge">
<title>Lakes&#45;&gt;Natural lakes</title>
<path fill="none" stroke="black" d="M279.24,-72C296.9,-72 320.78,-72 342.39,-72"/>
<polygon fill="black" stroke="black" points="342.26,-75.5 352.26,-72 342.26,-68.5 342.26,-75.5"/>
</g>
<!-- Recreational reservoirs -->
<g id="node5" class="node">
<title>Recreational reservoirs</title>
<polygon fill="none" stroke="black" points="469.38,-36 325.88,-36 325.88,0 469.38,0 469.38,-36"/>
<text text-anchor="middle" x="397.62" y="-12.57" font-family="Times New Roman,serif" font-size="14.00">Recreational reservoirs</text>
</g>
<!-- Reservoirs&#45;&gt;Recreational reservoirs -->
<g id="edge4" class="edge">
<title>Reservoirs&#45;&gt;Recreational reservoirs</title>
<path fill="none" stroke="black" d="M290.27,-18C297.7,-18 305.78,-18 314.06,-18"/>
<polygon fill="black" stroke="black" points="313.9,-21.5 323.9,-18 313.9,-14.5 313.9,-21.5"/>
</g>
<!-- metadata_node -->
<g id="node6" class="node">
<title>metadata_node</title>
<text text-anchor="start" x="24" y="-135.2" font-family="Times New Roman,serif" font-size="14.00">Concepts: 5</text>
<text text-anchor="start" x="24" y="-119.45" font-family="Times New Roman,serif" font-size="14.00"> Subsumptions: 4</text>
<text text-anchor="start" x="24" y="-103.7" font-family="Times New Roman,serif" font-size="14.00"> Exploration Depth: 2</text>
<text text-anchor="start" x="24" y="-87.95" font-family="Times New Roman,serif" font-size="14.00"> Frequency Threshold: 20</text>
</g>
</g>
</svg>
