<?xml version="1.0" encoding="UTF-8" standalone="no"?>
<!DOCTYPE svg PUBLIC "-//W3C//DTD SVG 1.1//EN"
 "http://www.w3.org/Graphics/SVG/1.1/DTD/svg11.dtd">
<!-- Generated by graphviz version 10.0.1 (20240210.2158)
 -->
<!-- Pages: 1 -->
<svg width="960pt" height="476pt"
 viewBox="0.00 0.00 960.46 476.00" xmlns="http://www.w3.org/2000/svg" xmlns:xlink="http://www.w3.org/1999/xlink">
<g id="graph0" class="graph" transform="scale(1 1) rotate(0) translate(4 472)">
<polygon fill="white" stroke="none" points="-4,4 -4,-472 956.46,-472 956.46,4 -4,4"/>
<g id="clust1" class="cluster">
<title>cluster_metadata</title>
<polygon fill="none" stroke="black" points="8,-235 8,-323 184,-323 184,-235 8,-235"/>
</g>
<!-- Coastal ecosystems -->
<g id="node1" class="node">
<title>Coastal ecosystems</title>
<polygon fill="none" stroke="black" points="159.5,-225 32.5,-225 32.5,-189 159.5,-189 159.5,-225"/>
<text text-anchor="middle" x="96" y="-201.57" font-family="Times New Roman,serif" font-size="14.00">Coastal ecosystems</text>
</g>
<!-- Mangrove forests -->
<g id="node2" class="node">
<title>Mangrove forests</title>
<polygon fill="none" stroke="black" points="326.25,-360 212,-360 212,-324 326.25,-324 326.25,-360"/>
<text text-anchor="middle" x="269.12" y="-336.57" font-family="Times New Roman,serif" font-size="14.00">Mangrove forests</text>
</g>
<!-- Coastal ecosystems&#45;&gt;Mangrove forests -->
<g id="edge1" class="edge">
<title>Coastal ecosystems&#45;&gt;Mangrove forests</title>
<path fill="none" stroke="black" d="M159.58,-218.88C168.19,-222.02 176.61,-225.99 184,-231 192.48,-236.75 226.6,-283.53 248.69,-314.5"/>
<polygon fill="black" stroke="black" points="245.6,-316.18 254.25,-322.3 251.3,-312.13 245.6,-316.18"/>
</g>
<!-- Rocky shores -->
<g id="node3" class="node">
<title>Rocky shores</title>
<polygon fill="none" stroke="black" points="316.12,-198 222.12,-198 222.12,-162 316.12,-162 316.12,-198"/>
<text text-anchor="middle" x="269.12" y="-174.57" font-family="Times New Roman,serif" font-size="14.00">Rocky shores</text>
</g>
<!-- Coastal ecosystems&#45;&gt;Rocky shores -->
<g id="edge2" class="edge">
<title>Coastal ecosystems&#45;&gt;Rocky shores</title>
<path fill="none" stroke="black" d="M159.75,-197.1C176.41,-194.47 194.32,-191.64 210.69,-189.06"/>
<polygon fill="black" stroke="black" points="210.91,-192.57 220.24,-187.56 209.81,-185.66 210.91,-192.57"/>
</g>
<!-- Salt marshes -->
<g id="node4" class="node">
<title>Salt marshes</title>
<polygon fill="none" stroke="black" points="312.38,-117 225.88,-117 225.88,-81 312.38,-81 312.38,-117"/>
<text text-anchor="middle" x="269.12" y="-93.58" font-family="Times New Roman,serif" font-size="14.00">Salt marshes</text>
</g>
<!-- Coastal ecosystems&#45;&gt;Salt marshes -->
<g id="edge3" class="edge">
<title>Coastal ecosystems&#45;&gt;Salt marshes</title>
<path fill="none" stroke="black" d="M126.03,-188.68C154.42,-170.76 197.85,-143.35 229.23,-123.55"/>
<polygon fill="black" stroke="black" points="231.08,-126.52 237.67,-118.22 227.35,-120.6 231.08,-126.52"/>
</g>
<!-- Sandy beaches -->
<g id="node5" class="node">
<title>Sandy beaches</title>
<polygon fill="none" stroke="black" points="319.12,-252 219.12,-252 219.12,-216 319.12,-216 319.12,-252"/>
<text text-anchor="middle" x="269.12" y="-228.57" font-family="Times New Roman,serif" font-size="14.00">Sandy beaches</text>
</g>
<!-- Coastal ecosystems&#45;&gt;Sandy beaches -->
<g id="edge4" class="edge">
<title>Coastal ecosystems&#45;&gt;Sandy beaches</title>
<path fill="none" stroke="black" d="M159.75,-216.9C175.41,-219.37 192.17,-222.02 207.71,-224.47"/>
<polygon fill="black" stroke="black" points="206.86,-227.88 217.28,-225.98 207.95,-220.96 206.86,-227.88"/>
</g>
<!-- Mangrove conservation -->
<g id="node6" class="node">
<title>Mangrove conservation</title>
<polygon fill="none" stroke="black" points="509.5,-414 362.25,-414 362.25,-378 509.5,-378 509.5,-414"/>
<text text-anchor="middle" x="435.88" y="-390.57" font-family="Times New Roman,serif" font-size="14.00">Mangrove conservation</text>
</g>
<!-- Mangrove forests&#45;&gt;Mangrove conservation -->
<g id="edge5" class="edge">
<title>Mangrove forests&#45;&gt;Mangrove conservation</title>
<path fill="none" stroke="black" d="M326.36,-360.43C339.68,-364.8 354,-369.49 367.75,-374"/>
<polygon fill="black" stroke="black" points="366.58,-377.3 377.17,-377.09 368.76,-370.65 366.58,-377.3"/>
</g>
<!-- Intertidal zones -->
<g id="node7" class="node">
<title>Intertidal zones</title>
<polygon fill="none" stroke="black" points="486.25,-198 385.5,-198 385.5,-162 486.25,-162 486.25,-198"/>
<text text-anchor="middle" x="435.88" y="-174.57" font-family="Times New Roman,serif" font-size="14.00">Intertidal zones</text>
</g>
<!-- Rocky shores&#45;&gt;Intertidal zones -->
<g id="edge6" class="edge">
<title>Rocky shores&#45;&gt;Intertidal zones</title>
<path fill="none" stroke="black" d="M316.46,-180C334.27,-180 354.89,-180 373.88,-180"/>
<polygon fill="black" stroke="black" points="373.64,-183.5 383.64,-180 373.64,-176.5 373.64,-183.5"/>
</g>
<!-- Halophytes -->
<g id="node8" class="node">
<title>Halophytes</title>
<polygon fill="none" stroke="black" points="475.38,-90 396.38,-90 396.38,-54 475.38,-54 475.38,-90"/>
<text text-anchor="middle" x="435.88" y="-66.58" font-family="Times New Roman,serif" font-size="14.00">Halophytes</text>
</g>
<!-- Salt marshes&#45;&gt;Halophytes -->
<g id="edge7" class="edge">
<title>Salt marshes&#45;&gt;Halophytes</title>
<path fill="none" stroke="black" d="M312.55,-92.05C334.57,-88.44 361.62,-84.01 384.68,-80.23"/>
<polygon fill="black" stroke="black" points="385.18,-83.69 394.48,-78.62 384.05,-76.78 385.18,-83.69"/>
</g>
<!-- Beach fauna -->
<g id="node9" class="node">
<title>Beach fauna</title>
<polygon fill="none" stroke="black" points="478,-306 393.75,-306 393.75,-270 478,-270 478,-306"/>
<text text-anchor="middle" x="435.88" y="-282.57" font-family="Times New Roman,serif" font-size="14.00">Beach fauna</text>
</g>
<!-- Sandy beaches&#45;&gt;Beach fauna -->
<g id="edge8" class="edge">
<title>Sandy beaches&#45;&gt;Beach fauna</title>
<path fill="none" stroke="black" d="M319.56,-250.2C339.39,-256.7 362.27,-264.2 382.4,-270.8"/>
<polygon fill="black" stroke="black" points="381.23,-274.1 391.82,-273.89 383.41,-267.45 381.23,-274.1"/>
</g>
<!-- Sandy intertidal -->
<g id="node10" class="node">
<title>Sandy intertidal</title>
<polygon fill="none" stroke="black" points="688.62,-252 586.38,-252 586.38,-216 688.62,-216 688.62,-252"/>
<text text-anchor="middle" x="637.5" y="-228.57" font-family="Times New Roman,serif" font-size="14.00">Sandy intertidal</text>
</g>
<!-- Sandy beaches&#45;&gt;Sandy intertidal -->
<g id="edge9" class="edge">
<title>Sandy beaches&#45;&gt;Sandy intertidal</title>
<path fill="none" stroke="black" d="M319.54,-234C385.72,-234 503.15,-234 574.99,-234"/>
<polygon fill="black" stroke="black" points="574.6,-237.5 584.6,-234 574.6,-230.5 574.6,-237.5"/>
</g>
<!-- Mangrove ecosystem services -->
<g id="node11" class="node">
<title>Mangrove ecosystem services</title>
<polygon fill="none" stroke="black" points="729.5,-414 545.5,-414 545.5,-378 729.5,-378 729.5,-414"/>
<text text-anchor="middle" x="637.5" y="-390.57" font-family="Times New Roman,serif" font-size="14.00">Mangrove ecosystem services</text>
</g>
<!-- Mangrove conservation&#45;&gt;Mangrove ecosystem services -->
<g id="edge11" class="edge">
<title>Mangrove conservation&#45;&gt;Mangrove ecosystem services</title>
<path fill="none" stroke="black" d="M509.79,-396C517.59,-396 525.62,-396 533.68,-396"/>
<polygon fill="black" stroke="black" points="533.56,-399.5 543.56,-396 533.56,-392.5 533.56,-399.5"/>
</g>
<!-- Restoration efforts -->
<g id="node13" class="node">
<title>Restoration efforts</title>
<polygon fill="none" stroke="black" points="698,-468 577,-468 577,-432 698,-432 698,-468"/>
<text text-anchor="middle" x="637.5" y="-444.57" font-family="Times New Roman,serif" font-size="14.00">Restoration efforts</text>
</g>
<!-- Mangrove conservation&#45;&gt;Restoration efforts -->
<g id="edge12" class="edge">
<title>Mangrove conservation&#45;&gt;Restoration efforts</title>
<path fill="none" stroke="black" d="M505.02,-414.43C524.56,-419.72 545.91,-425.49 565.61,-430.82"/>
<polygon fill="black" stroke="black" points="564.65,-434.19 575.21,-433.42 566.48,-427.43 564.65,-434.19"/>
</g>
<!-- Intertidal zones&#45;&gt;Sandy intertidal -->
<g id="edge15" class="edge">
<title>Intertidal zones&#45;&gt;Sandy intertidal</title>
<path fill="none" stroke="black" d="M486.73,-193.49C513.44,-200.71 546.59,-209.68 574.9,-217.34"/>
<polygon fill="black" stroke="black" points="573.86,-220.68 584.43,-219.91 575.69,-213.92 573.86,-220.68"/>
</g>
<!-- Mudflats -->
<g id="node14" class="node">
<title>Mudflats</title>
<polygon fill="none" stroke="black" points="670.25,-144 604.75,-144 604.75,-108 670.25,-108 670.25,-144"/>
<text text-anchor="middle" x="637.5" y="-120.58" font-family="Times New Roman,serif" font-size="14.00">Mudflats</text>
</g>
<!-- Intertidal zones&#45;&gt;Mudflats -->
<g id="edge13" class="edge">
<title>Intertidal zones&#45;&gt;Mudflats</title>
<path fill="none" stroke="black" d="M486.73,-166.51C519.54,-157.64 562.06,-146.14 593.4,-137.66"/>
<polygon fill="black" stroke="black" points="594.21,-141.07 602.94,-135.08 592.38,-134.31 594.21,-141.07"/>
</g>
<!-- Rocky intertidal -->
<g id="node15" class="node">
<title>Rocky intertidal</title>
<polygon fill="none" stroke="black" points="689.75,-198 585.25,-198 585.25,-162 689.75,-162 689.75,-198"/>
<text text-anchor="middle" x="637.5" y="-174.57" font-family="Times New Roman,serif" font-size="14.00">Rocky intertidal</text>
</g>
<!-- Intertidal zones&#45;&gt;Rocky intertidal -->
<g id="edge14" class="edge">
<title>Intertidal zones&#45;&gt;Rocky intertidal</title>
<path fill="none" stroke="black" d="M486.73,-180C513.02,-180 545.54,-180 573.55,-180"/>
<polygon fill="black" stroke="black" points="573.33,-183.5 583.33,-180 573.33,-176.5 573.33,-183.5"/>
</g>
<!-- Obligate halophytes -->
<g id="node16" class="node">
<title>Obligate halophytes</title>
<polygon fill="none" stroke="black" points="700.62,-36 574.38,-36 574.38,0 700.62,0 700.62,-36"/>
<text text-anchor="middle" x="637.5" y="-12.57" font-family="Times New Roman,serif" font-size="14.00">Obligate halophytes</text>
</g>
<!-- Halophytes&#45;&gt;Obligate halophytes -->
<g id="edge16" class="edge">
<title>Halophytes&#45;&gt;Obligate halophytes</title>
<path fill="none" stroke="black" d="M475.84,-61.46C500.7,-54.74 533.7,-45.81 563.33,-37.79"/>
<polygon fill="black" stroke="black" points="563.87,-41.27 572.61,-35.28 562.04,-34.52 563.87,-41.27"/>
</g>
<!-- Succulent halophytes -->
<g id="node17" class="node">
<title>Succulent halophytes</title>
<polygon fill="none" stroke="black" points="704.75,-90 570.25,-90 570.25,-54 704.75,-54 704.75,-90"/>
<text text-anchor="middle" x="637.5" y="-66.58" font-family="Times New Roman,serif" font-size="14.00">Succulent halophytes</text>
</g>
<!-- Halophytes&#45;&gt;Succulent halophytes -->
<g id="edge17" class="edge">
<title>Halophytes&#45;&gt;Succulent halophytes</title>
<path fill="none" stroke="black" d="M475.84,-72C499.48,-72 530.48,-72 558.94,-72"/>
<polygon fill="black" stroke="black" points="558.61,-75.5 568.61,-72 558.61,-68.5 558.61,-75.5"/>
</g>
<!-- Mollusks -->
<g id="node18" class="node">
<title>Mollusks</title>
<polygon fill="none" stroke="black" points="671,-306 604,-306 604,-270 671,-270 671,-306"/>
<text text-anchor="middle" x="637.5" y="-282.57" font-family="Times New Roman,serif" font-size="14.00">Mollusks</text>
</g>
<!-- Beach fauna&#45;&gt;Mollusks -->
<g id="edge18" class="edge">
<title>Beach fauna&#45;&gt;Mollusks</title>
<path fill="none" stroke="black" d="M478.24,-288C511.54,-288 558.25,-288 592.29,-288"/>
<polygon fill="black" stroke="black" points="592.24,-291.5 602.24,-288 592.24,-284.5 592.24,-291.5"/>
</g>
<!-- Beach animals -->
<g id="node19" class="node">
<title>Beach animals</title>
<ellipse fill="none" stroke="black" cx="637.5" cy="-342" rx="63.54" ry="18"/>
<text text-anchor="middle" x="637.5" y="-336.57" font-family="Times New Roman,serif" font-size="14.00">Beach animals</text>
</g>
<!-- Beach fauna&#45;&gt;Beach animals -->
<g id="edge19" class="edge">
<title>Beach fauna&#45;&gt;Beach animals</title>
<path fill="none" stroke="blue" d="M488.97,-302.09C516.7,-309.59 550.85,-318.83 579.3,-326.53"/>
<polygon fill="blue" stroke="blue" points="490.27,-298.82 479.7,-299.58 488.44,-305.57 490.27,-298.82"/>
<polygon fill="blue" stroke="blue" points="578.28,-329.88 588.85,-329.11 580.11,-323.12 578.28,-329.88"/>
</g>
<!-- Sandy intertidal zones -->
<g id="node21" class="node">
<title>Sandy intertidal zones</title>
<ellipse fill="none" stroke="black" cx="858.98" cy="-234" rx="91.98" ry="18"/>
<text text-anchor="middle" x="858.98" y="-228.57" font-family="Times New Roman,serif" font-size="14.00">Sandy intertidal zones</text>
</g>
<!-- Sandy intertidal&#45;&gt;Sandy intertidal zones -->
<g id="edge21" class="edge">
<title>Sandy intertidal&#45;&gt;Sandy intertidal zones</title>
<path fill="none" stroke="blue" d="M700.34,-234C717.54,-234 736.69,-234 755.55,-234"/>
<polygon fill="blue" stroke="blue" points="700.37,-230.5 690.37,-234 700.37,-237.5 700.37,-230.5"/>
<polygon fill="blue" stroke="blue" points="755.4,-237.5 765.4,-234 755.4,-230.5 755.4,-237.5"/>
</g>
<!-- Fisheries support -->
<g id="node12" class="node">
<title>Fisheries support</title>
<polygon fill="none" stroke="black" points="915.35,-414 802.6,-414 802.6,-378 915.35,-378 915.35,-414"/>
<text text-anchor="middle" x="858.98" y="-390.57" font-family="Times New Roman,serif" font-size="14.00">Fisheries support</text>
</g>
<!-- Mangrove ecosystem services&#45;&gt;Fisheries support -->
<g id="edge10" class="edge">
<title>Mangrove ecosystem services&#45;&gt;Fisheries support</title>
<path fill="none" stroke="black" d="M729.99,-396C750.44,-396 771.77,-396 791.01,-396"/>
<polygon fill="black" stroke="black" points="790.87,-399.5 800.87,-396 790.87,-392.5 790.87,-399.5"/>
</g>
<!-- Rocky intertidal zones -->
<g id="node20" class="node">
<title>Rocky intertidal zones</title>
<ellipse fill="none" stroke="black" cx="858.98" cy="-180" rx="93.48" ry="18"/>
<text text-anchor="middle" x="858.98" y="-174.57" font-family="Times New Roman,serif" font-size="14.00">Rocky intertidal zones</text>
</g>
<!-- Rocky intertidal&#45;&gt;Rocky intertidal zones -->
<g id="edge20" class="edge">
<title>Rocky intertidal&#45;&gt;Rocky intertidal zones</title>
<path fill="none" stroke="blue" d="M701.62,-180C717.99,-180 736.06,-180 753.94,-180"/>
<polygon fill="blue" stroke="blue" points="701.75,-176.5 691.75,-180 701.75,-183.5 701.75,-176.5"/>
<polygon fill="blue" stroke="blue" points="753.81,-183.5 763.81,-180 753.81,-176.5 753.81,-183.5"/>
</g>
<!-- metadata_node -->
<g id="node22" class="node">
<title>metadata_node</title>
<text text-anchor="start" x="24" y="-297.2" font-family="Times New Roman,serif" font-size="14.00">Concepts: 18</text>
<text text-anchor="start" x="24" y="-281.45" font-family="Times New Roman,serif" font-size="14.00"> Subsumptions: 18</text>
<text text-anchor="start" x="24" y="-265.7" font-family="Times New Roman,serif" font-size="14.00"> Exploration Depth: 3</text>
<text text-anchor="start" x="24" y="-249.95" font-family="Times New Roman,serif" font-size="14.00"> Frequency Threshold: 10</text>
</g>
</g>
</svg>
